<?xml version="1.0" standalone="no"?>
<!DOCTYPE svg PUBLIC "-//W3C//DTD SVG 1.1//EN" "http://www.w3.org/Graphics/SVG/1.1/DTD/svg11.dtd" >
<svg xmlns="http://www.w3.org/2000/svg">
<metadata></metadata>
<defs>
<font id="dincond-boldregular" horiz-adv-x="817" >
<font-face units-per-em="2048" ascent="1638" descent="-410" />
<missing-glyph horiz-adv-x="366" />
<glyph horiz-adv-x="0" />
<glyph unicode="&#xd;" horiz-adv-x="366" />
<glyph unicode=" "  horiz-adv-x="366" />
<glyph unicode="&#x09;" horiz-adv-x="366" />
<glyph unicode="&#xa0;" horiz-adv-x="366" />
<glyph unicode="!" horiz-adv-x="526" d="M160 0v252h254v-252h-254zM178 410v1048h217v-1048h-217z" />
<glyph unicode="&#x22;" horiz-adv-x="894" d="M147 1047v411h209v-411h-209zM539 1047v411h206v-411h-206z" />
<glyph unicode="#" horiz-adv-x="1245" d="M96 412v204h172l37 261h-145l-2 206h180l53 375h227l-55 -375h219l56 375h225l-53 -375h139v-206h-172l-37 -261h145v-204h-178l-59 -412h-227l59 412h-219l-60 -412h-225l60 412h-140zM494 616h219l39 261h-220z" />
<glyph unicode="$" horiz-adv-x="919" d="M78 395h229q0 -59 8.5 -97t32.5 -67q16 -16 42 -27t65 -11q41 0 66.5 10t41.5 30q23 27 32 65t9 97q0 57 -5 96t-20.5 65t-42 44t-69.5 35l-174 72q-55 23 -94 51t-62.5 70t-35 101.5t-11.5 143.5q0 98 30 177t89 132q63 57 147 76v193h203v-191q98 -18 162 -78 q57 -55 79.5 -134t22.5 -183h-229q0 49 -6 88t-29 68q-33 43 -102 43q-35 0 -58.5 -11.5t-40.5 -29.5q-39 -45 -39 -144q0 -45 4.5 -75.5t17.5 -52t36.5 -38t62.5 -30.5l172 -70q66 -27 109 -59.5t67.5 -79.5t35 -113t10.5 -158q0 -113 -19.5 -190.5t-75.5 -130.5 q-31 -31 -76 -53.5t-104 -32.5v-229h-203v227q-117 18 -186 88q-53 53 -72.5 125t-19.5 188z" />
<glyph unicode="%" horiz-adv-x="1499" d="M96 956v273q0 61 21.5 107t56.5 77t82 46.5t100 15.5q51 0 99.5 -15.5t83 -46.5t56 -77t21.5 -107v-273q0 -61 -21.5 -107t-56 -77t-82.5 -46t-100 -15q-53 0 -100 15t-82 46t-56.5 77t-21.5 107zM272 961q0 -47 23.5 -70t60.5 -23t59.5 22.5t22.5 70.5v264 q0 47 -22.5 69.5t-59.5 22.5t-60.5 -22.5t-23.5 -69.5v-264zM414 0l508 1458h168l-508 -1458h-168zM883 229v273q0 61 21.5 107t56 77t82 46.5t100.5 15.5q51 0 99 -15.5t83 -46.5t56.5 -77t21.5 -107v-273q0 -61 -21.5 -107t-56.5 -77t-83 -46t-99 -15q-53 0 -100.5 15 t-82 46t-56 77t-21.5 107zM1061 233q0 -47 22.5 -69.5t59.5 -22.5t59.5 22.5t22.5 69.5v265q0 47 -22.5 69.5t-59.5 22.5t-59.5 -22.5t-22.5 -69.5v-265z" />
<glyph unicode="&#x26;" horiz-adv-x="1021" d="M70 358q0 125 56 229.5t161 211.5q-72 96 -113 176t-41 172q0 80 22.5 141.5t62.5 102.5t92 61.5t114 20.5q74 0 129 -24t92 -66t55.5 -97t18.5 -119q0 -129 -50.5 -221t-136.5 -180l175 -268q25 53 40 124.5t19 143.5h186q-2 -61 -12 -124.5t-27.5 -123t-39 -115 t-46.5 -98.5l191 -305h-227l-80 129q-59 -68 -129 -106.5t-170 -38.5q-74 0 -137.5 25.5t-108.5 73.5t-70.5 117.5t-25.5 157.5zM272 373q0 -86 44 -140.5t114 -54.5q49 0 91 30t83 87l-211 328q-63 -66 -92 -127.5t-29 -122.5zM328 1155q0 -47 24.5 -100.5t71.5 -114.5 q49 53 74.5 101t25.5 122q0 53 -28.5 84t-69.5 31q-47 0 -72.5 -33t-25.5 -90z" />
<glyph unicode="'" horiz-adv-x="505" d="M147 1047v411h209v-411h-209z" />
<glyph unicode="(" horiz-adv-x="542" d="M98 246v966q0 61 8.5 123t40.5 119q33 55 75 101.5t91 95.5l146 -146q-35 -35 -63.5 -66.5t-51.5 -70.5q-16 -29 -22.5 -71t-6.5 -97v-942q0 -55 6.5 -97t22.5 -71q23 -39 51.5 -70.5t63.5 -66.5l-146 -146q-49 49 -92 96.5t-74 100.5q-33 57 -41 118.5t-8 123.5z" />
<glyph unicode=")" horiz-adv-x="542" d="M84 -47q35 35 64.5 66.5t50.5 70.5q16 29 23 71t7 97v942q0 55 -7 97t-23 71q-20 39 -50 70.5t-65 66.5l147 146q47 -49 90.5 -95.5t73.5 -101.5q33 -57 42 -118.5t9 -123.5v-966q0 -61 -9 -123t-42 -119q-29 -53 -72.5 -100t-91.5 -97z" />
<glyph unicode="*" horiz-adv-x="854" d="M88 981l201 104l-201 105l76 135l192 -121l-8 258h158l-8 -258l190 121l78 -135l-201 -105l201 -104l-78 -133l-190 119l8 -258h-158l8 258l-192 -119z" />
<glyph unicode="+" horiz-adv-x="935" d="M90 487v207h275v275h206v-275h275v-207h-275v-274h-206v274h-275z" />
<glyph unicode="," horiz-adv-x="468" d="M117 254h235v-387l-235 -174v561z" />
<glyph unicode="-" horiz-adv-x="604" d="M96 487v207h414v-207h-414z" />
<glyph unicode="." horiz-adv-x="479" d="M115 0v252h252v-252h-252z" />
<glyph unicode="/" horiz-adv-x="610" d="M12 -152l379 1762h205l-379 -1762h-205z" />
<glyph unicode="0" horiz-adv-x="821" d="M86 311v836q0 88 24.5 144.5t67.5 97.5t104.5 63.5t129.5 22.5t128 -22.5t103 -63.5t67.5 -97.5t24.5 -144.5v-836q0 -88 -24.5 -144t-67.5 -97t-103.5 -63.5t-127.5 -22.5q-68 0 -129.5 22.5t-104.5 63.5t-67.5 97t-24.5 144zM303 303q0 -63 32 -94t77 -31t75.5 31 t30.5 94v852q0 63 -30.5 94t-75.5 31t-77 -30.5t-32 -94.5v-852z" />
<glyph unicode="1" horiz-adv-x="821" d="M143 1036v246l219 176h218v-1458h-218v1204z" />
<glyph unicode="2" horiz-adv-x="821" d="M90 1061v86q0 88 23.5 144.5t66.5 97.5t106.5 63.5t129.5 22.5t123 -18.5t102 -59.5q43 -41 69.5 -102.5t26.5 -149.5q0 -80 -22.5 -166t-57.5 -154l-329 -630h409v-195h-641v184l365 709q25 47 42 113.5t17 146.5q0 63 -29.5 95t-74.5 32t-77 -30.5t-32 -94.5v-94h-217z " />
<glyph unicode="3" horiz-adv-x="821" d="M84 311v86h217v-94q0 -63 32 -94t77 -31q27 0 46 10.5t31 26.5q23 29 29 88t6 127q0 74 -5 128t-28 85q-29 37 -81 37h-72v182h72q45 0 69 29q25 29 29 78t4 106q0 55 -4 100.5t-25 71.5q-27 33 -71 33q-41 0 -70 -28.5t-29 -88.5v-102h-217v88q0 86 23.5 143.5 t66.5 98.5q88 84 226 84q72 0 128 -21.5t95 -60.5q49 -49 71.5 -122t22.5 -181q0 -74 -6 -129.5t-31 -102.5q-29 -53 -80 -86q27 -18 48.5 -39.5t35.5 -48.5q29 -53 37 -113.5t8 -154.5q0 -59 -2 -107.5t-11 -91.5t-28.5 -80t-54.5 -69q-43 -41 -104.5 -62.5t-128.5 -21.5 q-68 0 -130.5 22.5t-105.5 63.5t-66.5 97t-23.5 144z" />
<glyph unicode="4" horiz-adv-x="821" d="M49 227v195l375 1036h211l-363 -1036h183v260h217v-260h100v-195h-100v-227h-217v227h-406z" />
<glyph unicode="5" horiz-adv-x="821" d="M86 311v72h217v-100q0 -66 31 -96.5t78 -30.5q51 0 80 39q25 33 28.5 108.5t3.5 167.5t-3 157.5t-25 100.5q-27 45 -84 45q-47 0 -78 -32.5t-31 -92.5v-31h-207v840h629v-194h-430v-392q16 20 34.5 39t41.5 31q49 27 104 27q68 0 115 -21.5t82 -66.5q47 -57 58 -155.5 t11 -233.5q0 -72 -2 -133.5t-11 -112.5t-28.5 -93t-56.5 -79q-43 -43 -103.5 -66.5t-127.5 -23.5q-68 0 -129.5 21.5t-104.5 62.5t-67.5 98t-24.5 145z" />
<glyph unicode="6" horiz-adv-x="821" d="M82 442q0 98 16.5 185.5t42.5 158.5l256 672h226l-240 -590q18 14 43 19.5t47 5.5q59 0 108.5 -21.5t84.5 -68.5q20 -25 33.5 -54.5t22.5 -70.5t13 -98.5t4 -137.5q0 -74 -4 -126t-13 -92t-21.5 -69.5t-30.5 -54.5q-43 -61 -112 -88.5t-148 -27.5q-88 0 -151.5 30.5 t-102.5 85.5q-23 31 -36.5 64t-22.5 72.5t-12 90t-3 115.5zM299 444q0 -66 3 -130t30 -99q14 -18 35.5 -27.5t44.5 -9.5q49 0 77 37q27 35 30 99t3 130v68t-3 65.5t-10 57.5t-20 43q-29 37 -77 37q-23 0 -44.5 -9.5t-35.5 -27.5q-12 -16 -19.5 -43t-10.5 -57.5t-3 -65.5v-68 z" />
<glyph unicode="7" horiz-adv-x="821" d="M68 1069v389h680v-180l-383 -1278h-218l383 1264h-254v-195h-208z" />
<glyph unicode="8" horiz-adv-x="821" d="M82 412q0 92 8 151.5t35 106.5q14 29 35.5 50t50.5 42q-51 37 -80 90q-25 47 -32 99.5t-7 127.5q0 106 19.5 181t74.5 131q43 43 100.5 63.5t123.5 20.5t124 -20.5t101 -63.5q55 -55 74.5 -130t19.5 -182q0 -76 -7 -128t-32 -99q-29 -53 -80 -90q29 -20 49.5 -42 t36.5 -50q27 -47 35 -106.5t8 -151.5q0 -59 -3 -108.5t-13 -90.5t-28.5 -76t-51.5 -67q-43 -43 -104.5 -64.5t-126.5 -21.5q-66 0 -128.5 21.5t-105.5 64.5q-33 33 -51 67.5t-28.5 75.5t-13.5 90t-3 109zM299 422q0 -63 4 -119.5t29 -89.5q29 -35 80 -35q49 0 77 35 q25 31 29 88.5t4 120.5q0 70 -3 126t-30 89q-29 35 -77 35q-51 0 -80 -35q-27 -33 -30 -89t-3 -126zM309 1069q0 -53 4 -107.5t33 -82.5q25 -25 66 -25t65 25q29 29 32 83t3 107t-4 103.5t-27 78.5q-23 29 -69 29q-23 0 -41.5 -6t-30.5 -23q-23 -29 -27 -79t-4 -103z" />
<glyph unicode="9" horiz-adv-x="821" d="M82 1016q0 74 4 126t13.5 92t22.5 69.5t32 54.5q43 61 110.5 89t147.5 28q88 0 152.5 -31t103.5 -86q20 -31 34.5 -63.5t22.5 -72.5t11 -90t3 -116q0 -98 -16 -185.5t-43 -158.5l-256 -672h-225l239 590q-18 -14 -41.5 -19.5t-46.5 -5.5q-59 0 -109.5 21.5t-84.5 68.5 q-20 25 -33.5 54.5t-23 70.5t-13.5 98.5t-4 137.5zM299 946q0 -35 3 -65.5t10 -57t20 -43.5q14 -18 35.5 -27.5t44.5 -9.5q49 0 77 37q12 16 19.5 43t10.5 57.5t3 65.5v68q0 66 -3 130t-30 99q-29 37 -77 37q-53 0 -80 -37q-27 -35 -30 -99.5t-3 -129.5v-68z" />
<glyph unicode=":" horiz-adv-x="526" d="M160 0v252h254v-252h-254zM160 641v252h254v-252h-254z" />
<glyph unicode=";" horiz-adv-x="526" d="M160 641v252h254v-252h-254zM168 254h238v-387l-238 -174v561z" />
<glyph unicode="&#x3c;" horiz-adv-x="821" d="M70 522v152l682 397v-237l-416 -236l416 -236v-239z" />
<glyph unicode="=" horiz-adv-x="935" d="M90 297v207h756v-207h-756zM90 668v206h756v-206h-756z" />
<glyph unicode="&#x3e;" horiz-adv-x="821" d="M70 123v239l415 236l-415 236v237l682 -397v-152z" />
<glyph unicode="?" horiz-adv-x="872" d="M115 1079q0 92 21.5 168t74.5 127q43 41 102.5 68.5t143.5 27.5q162 0 250 -92q53 -53 75.5 -124.5t22.5 -180.5q0 -86 -16.5 -144.5t-53.5 -107.5l-121 -162q-47 -63 -47 -133v-116h-217v141q0 49 17.5 94t46.5 82l121 162q35 45 44 88t9 102q0 53 -8.5 91t-32.5 67 q-35 39 -88 39q-55 0 -88 -37q-29 -31 -34 -74t-5 -86h-217zM332 0v252h254v-252h-254z" />
<glyph unicode="@" horiz-adv-x="1245" d="M96 268v854q0 90 24.5 147.5t69.5 100.5q88 88 242 88h365q154 0 241 -88q45 -43 71 -100.5t26 -147.5v-1122h-209v82q-14 -18 -33 -37.5t-39 -30.5q-23 -14 -52.5 -22t-58.5 -8q-66 0 -111.5 20.5t-82.5 63.5q-33 37 -47.5 88t-14.5 145v385q0 94 14.5 145.5t47.5 88.5 q37 43 83 63.5t111 20.5q59 0 111 -29q39 -20 64 -55v170q0 182 -170 182h-267q-168 0 -168 -182v-811q0 -53 13.5 -86t46.5 -64l-158 -156q-33 31 -55.5 62t-36.5 65.5t-20.5 75.5t-6.5 92zM705 303q0 -63 30.5 -94t75.5 -31t76 31t31 94v381q0 63 -31 95t-76 32 t-75.5 -31.5t-30.5 -95.5v-381z" />
<glyph unicode="A" horiz-adv-x="958" d="M10 0l359 1458h223l354 -1458h-239l-60 289h-338l-57 -289h-242zM354 496h250l-125 610z" />
<glyph unicode="B" horiz-adv-x="966" d="M123 0v1458h364q102 0 170 -21.5t115 -68.5q49 -51 69.5 -125t20.5 -182q0 -74 -13 -135.5t-63 -110.5q-33 -33 -75 -51q47 -18 77 -53q53 -59 65.5 -135t12.5 -144q0 -125 -20.5 -206t-73.5 -134q-47 -47 -115.5 -69.5t-171.5 -22.5h-362zM352 207h111q94 0 134 50 t40 177q0 123 -41 175.5t-133 52.5h-111v-455zM352 856h109q92 0 132 47.5t40 151.5q0 111 -40 153.5t-132 42.5h-109v-395z" />
<glyph unicode="C" horiz-adv-x="915" d="M84 727q0 106 1 200.5t11 173.5t32 141.5t62 109.5q47 53 113 88t170 35q84 0 144.5 -24t109.5 -71q53 -51 83 -130t34 -177h-230q-2 41 -9 77t-25 64q-16 25 -41 39.5t-66 14.5t-66.5 -15.5t-41.5 -40.5q-33 -53 -42.5 -167.5t-9.5 -315.5t9.5 -315.5t42.5 -167.5 q16 -25 41.5 -40.5t66.5 -15.5t66.5 14.5t42.5 39.5q18 29 25 65.5t9 77.5h230q-4 -98 -35 -179t-86 -132q-49 -45 -109.5 -68.5t-142.5 -23.5q-104 0 -169.5 34.5t-113.5 87.5q-41 45 -62.5 107.5t-31.5 141.5t-11 171t-1 201z" />
<glyph unicode="D" horiz-adv-x="966" d="M123 0v1458h371q104 0 170.5 -34.5t111.5 -86.5q41 -45 62.5 -106.5t32 -138t11.5 -168t1 -195.5t-1 -195.5t-11.5 -168t-32 -138t-62.5 -106.5q-45 -51 -111.5 -86t-170.5 -35h-371zM352 207h135q41 0 71 16.5t46 42.5q33 51 41 161.5t8 303.5t-8 301.5t-41 159.5 q-16 27 -46 43t-71 16h-135v-1044z" />
<glyph unicode="E" horiz-adv-x="811" d="M123 0v1458h612v-207h-383v-413h330v-207h-330v-424h383v-207h-612z" />
<glyph unicode="F" horiz-adv-x="798" d="M123 0v1458h612v-207h-383v-413h330v-207h-330v-631h-229z" />
<glyph unicode="G" horiz-adv-x="931" d="M84 729q0 106 1 200.5t11 172.5t32 140.5t62 109.5q47 53 113 88t170 35q86 0 149.5 -26t110.5 -73q53 -55 81 -133t32 -172h-230q0 31 -5 65.5t-20.5 63.5t-44 48.5t-73.5 19.5q-41 0 -66.5 -15.5t-41.5 -40.5q-33 -53 -42.5 -167.5t-9.5 -315.5t9.5 -315.5t42.5 -167.5 q16 -25 41.5 -40.5t66.5 -15.5q74 0 108.5 55.5t34.5 131.5v227h-143v189h373v-404q0 -98 -27.5 -174t-77 -127t-118 -77.5t-150.5 -26.5q-104 0 -169.5 34.5t-113.5 87.5q-41 45 -62.5 109t-31.5 141.5t-11 171t-1 201.5z" />
<glyph unicode="H" horiz-adv-x="989" d="M123 0v1458h229v-614h285v614h229v-1458h-229v639h-285v-639h-229z" />
<glyph unicode="I" horiz-adv-x="475" d="M123 0v1458h229v-1458h-229z" />
<glyph unicode="J" horiz-adv-x="796" d="M6 100l160 154q18 -27 52 -45.5t75 -18.5q72 0 118 48.5t46 142.5v1077h229v-1077q0 -88 -24.5 -161t-75.5 -126q-103 -110 -290 -110h-3q-90 0 -162 30.5t-125 85.5z" />
<glyph unicode="K" horiz-adv-x="960" d="M123 0v1458h229v-686l318 686h231l-293 -604l338 -854h-248l-235 600l-111 -225v-375h-229z" />
<glyph unicode="L" horiz-adv-x="784" d="M123 0v1458h229v-1251h383v-207h-612z" />
<glyph unicode="M" horiz-adv-x="1224" d="M123 0v1458h207l282 -766l281 766h209v-1458h-230v909l-198 -598h-127l-195 588v-899h-229z" />
<glyph unicode="N" horiz-adv-x="1021" d="M123 0v1458h205l342 -866v866h229v-1458h-203l-344 866v-866h-229z" />
<glyph unicode="O" horiz-adv-x="946" d="M84 729q0 106 1 200.5t11 172.5t32 140.5t62 109.5q47 53 113 88t170 35t170 -35t113 -88q41 -47 62.5 -109.5t31.5 -140.5t11 -172.5t1 -200.5q0 -109 -1 -202t-11 -170.5t-31.5 -141t-62.5 -109.5q-47 -53 -112.5 -87.5t-170.5 -34.5q-104 0 -169.5 34.5t-113.5 87.5 q-41 45 -62.5 109t-31.5 141.5t-11 171t-1 201.5zM313 729q0 -201 9.5 -315.5t42.5 -167.5q16 -25 41.5 -40.5t66.5 -15.5t67.5 15.5t43.5 40.5q33 53 41 167.5t8 315.5t-8.5 315.5t-40.5 167.5q-16 25 -43 40.5t-68 15.5t-66.5 -15.5t-41.5 -40.5q-33 -53 -42.5 -167.5 t-9.5 -315.5z" />
<glyph unicode="P" horiz-adv-x="940" d="M123 0v1458h366q199 0 287 -106.5t88 -335.5q0 -221 -84 -334t-291 -113h-137v-569h-229zM352 776h142q45 0 73.5 19.5t43 51.5t19.5 75t5 92t-5 92t-19.5 74.5t-43 51t-73.5 19.5h-142v-475z" />
<glyph unicode="Q" horiz-adv-x="946" d="M84 729q0 106 1 200.5t11 172.5t32 140.5t62 109.5q47 53 113 88t170 35t170 -35t113 -88q41 -47 62.5 -109.5t31.5 -140.5t11 -172t1 -201q0 -180 -7 -315t-52 -232l121 -102l-107 -127l-119 100q-41 -33 -96 -51t-129 -18q-104 0 -169.5 34.5t-113.5 87.5 q-41 45 -62.5 109t-31.5 141.5t-11 171t-1 201.5zM313 729q0 -203 8.5 -316.5t43.5 -166.5q16 -25 41.5 -40.5t66.5 -15.5q31 0 49 11l-76 63l107 127l59 -49q14 59 17.5 149.5t3.5 237.5q0 203 -7.5 316.5t-41.5 166.5q-16 25 -43 40.5t-68 15.5t-66.5 -15.5t-41.5 -40.5 q-35 -53 -43.5 -166.5t-8.5 -316.5z" />
<glyph unicode="R" horiz-adv-x="978" d="M123 0v1458h369q201 0 286.5 -101.5t85.5 -328.5q0 -135 -34.5 -231.5t-135.5 -149.5l217 -647h-239l-191 598h-129v-598h-229zM352 805h142q45 0 73.5 17.5t43 48t19.5 71.5t5 86t-5 86t-19.5 72t-43 48t-73.5 17h-142v-446z" />
<glyph unicode="S" horiz-adv-x="905" d="M72 395h229q0 -59 8 -97t33 -67q16 -16 42 -27t65 -11q76 0 110 40q23 27 31 65t8 97q0 57 -5 96t-20.5 65t-42 44t-69.5 35l-174 72q-55 23 -94 51t-63 70t-35 101.5t-11 143.5q0 98 29.5 177t89.5 132q47 41 109.5 64.5t140.5 23.5q170 0 262 -88q57 -55 79.5 -134 t22.5 -183h-229q0 49 -6.5 88t-28.5 68q-33 43 -102 43q-35 0 -58.5 -11.5t-40.5 -29.5q-39 -45 -39 -144q0 -45 4.5 -75.5t17.5 -52t36.5 -38t62.5 -30.5l172 -70q66 -27 109 -59.5t67.5 -79.5t34.5 -113t10 -158q0 -113 -19.5 -190.5t-74.5 -130.5q-45 -43 -115.5 -69.5 t-168.5 -26.5q-186 0 -283 96q-53 53 -73.5 125t-20.5 188z" />
<glyph unicode="T" horiz-adv-x="804" d="M43 1251v207h719v-207h-246v-1251h-229v1251h-244z" />
<glyph unicode="U" horiz-adv-x="964" d="M111 358v1100h229v-1112q0 -78 42 -117t101 -39t100.5 39t41.5 117v1112h229v-1100q0 -84 -26.5 -151.5t-73.5 -116.5q-104 -106 -271 -106q-168 0 -272 106q-47 49 -73.5 116.5t-26.5 151.5z" />
<glyph unicode="V" horiz-adv-x="894" d="M8 1458h252l186 -1106l189 1106h252l-322 -1458h-237z" />
<glyph unicode="W" horiz-adv-x="1462" d="M8 1458h252l143 -1106l201 1106h254l203 -1106l141 1106h252l-274 -1458h-240l-209 1108l-207 -1108h-239z" />
<glyph unicode="X" horiz-adv-x="884" d="M23 0l288 756l-266 702h252l145 -487l146 487h252l-273 -702l295 -756h-252l-168 524l-168 -524h-251z" />
<glyph unicode="Y" horiz-adv-x="796" d="M0 1458h254l143 -577l146 577h252l-283 -887v-571h-229v571z" />
<glyph unicode="Z" horiz-adv-x="763" d="M63 0v172l398 1079h-373v207h610v-172l-395 -1079h395v-207h-635z" />
<glyph unicode="[" horiz-adv-x="577" d="M109 -152v1762h409v-193h-192v-1376h192v-193h-409z" />
<glyph unicode="\" horiz-adv-x="610" d="M12 1610h205l379 -1762h-205z" />
<glyph unicode="]" horiz-adv-x="577" d="M59 41h191v1376h-191v193h408v-1762h-408v193z" />
<glyph unicode="^" horiz-adv-x="948" d="M92 889l287 579h190l287 -579h-211l-170 362l-170 -362h-213z" />
<glyph unicode="_" horiz-adv-x="935" d="M0 -156h936v-157h-936v157z" />
<glyph unicode="`" d="M172 1487h182l148 -285h-152z" />
<glyph unicode="a" d="M55 315q0 74 25.5 136.5t75.5 105.5q41 35 97 54.5t150 19.5h97v149q0 125 -105 125q-45 0 -71 -31q-33 -35 -33 -100h-217q0 66 20.5 124t71.5 110q39 39 100.5 63.5t126.5 24.5q68 0 128.5 -18.5t101.5 -61.5q43 -43 68.5 -104.5t25.5 -149.5v-762h-205v92 q-14 -20 -30.5 -39.5t-35.5 -32.5q-25 -16 -53 -26t-69 -10q-68 0 -115 21.5t-88 68.5q-66 78 -66 241zM272 324q0 -150 113 -150q49 0 82 39t33 104v160h-72q-35 0 -62.5 -5t-50.5 -28q-20 -18 -31.5 -53t-11.5 -67z" />
<glyph unicode="b" horiz-adv-x="835" d="M106 0v1458h218v-448q27 37 63 57q47 29 109 29q63 0 108 -19.5t82 -64.5q53 -66 64.5 -180.5t11.5 -290.5t-11.5 -292t-64.5 -181q-37 -47 -84 -65.5t-106 -18.5q-29 0 -57.5 8t-51.5 22q-16 10 -38.5 31t-33.5 37v-82h-209zM324 307q0 -68 34 -102q14 -14 34 -20.5 t40 -6.5q53 0 82 43q23 37 27 118t4 202t-4 200.5t-27 116.5q-29 45 -82 45q-45 0 -74 -29q-35 -35 -34 -102v-465z" />
<glyph unicode="c" horiz-adv-x="786" d="M74 541q0 137 12 253.5t64 188.5q47 66 112.5 89.5t143.5 23.5q70 0 125 -15.5t102 -60.5q51 -49 71.5 -117.5t24.5 -138.5h-215q-2 25 -7 51.5t-22 48.5q-27 39 -79 39q-25 0 -47.5 -11t-36.5 -34q-23 -37 -27 -116.5t-4 -200.5t4 -201t27 -119q14 -23 36.5 -33 t47.5 -10q53 0 79 37q16 23 21.5 48.5t7.5 53.5h215q-4 -78 -26.5 -143t-67.5 -111q-79 -79 -225 -79h-4q-78 0 -143.5 24.5t-112.5 89.5q-51 70 -63.5 186.5t-12.5 256.5z" />
<glyph unicode="d" horiz-adv-x="835" d="M74 541q0 176 11 290.5t65 180.5q37 45 81.5 64.5t108.5 19.5q61 0 109 -29q37 -20 63 -57v448h217v-1458h-209v82q-10 -16 -32.5 -36.5t-38.5 -31.5q-23 -14 -51.5 -22t-57.5 -8q-59 0 -106.5 18t-83.5 66q-53 66 -64.5 181.5t-11.5 291.5zM291 541q0 -121 4 -202 t27 -118q14 -23 35.5 -33t45.5 -10q20 0 40 6t34 21q35 35 35 102v465q0 68 -35 102q-29 29 -74 29q-53 0 -81 -45q-23 -37 -27 -116.5t-4 -200.5z" />
<glyph unicode="e" horiz-adv-x="806" d="M74 541q0 74 3 143.5t13 129.5t29.5 110.5t54.5 85.5q49 49 107.5 67.5t124.5 18.5q68 0 126 -17.5t105 -68.5q39 -41 59.5 -101.5t28.5 -131t9 -147.5t1 -153h-444q0 -92 6 -159.5t27 -96.5q12 -18 33.5 -30.5t50.5 -12.5t47 11.5t34 31.5q12 16 19.5 44t7.5 52h215 q-4 -68 -23.5 -132t-66.5 -115q-41 -47 -101.5 -66.5t-131.5 -19.5q-76 0 -130.5 19.5t-103.5 68.5q-35 35 -54.5 85t-29.5 110.5t-13 130t-3 143.5zM291 637h227q0 84 -6 142.5t-25 80.5q-14 18 -33.5 30.5t-47.5 12.5q-29 0 -48.5 -12t-33.5 -31q-18 -23 -25.5 -81 t-7.5 -142z" />
<glyph unicode="f" horiz-adv-x="555" d="M39 913v166h111v64q0 96 28.5 157.5t79.5 102.5q53 41 117.5 54t140.5 13v-194q-150 0 -149 -146v-51h149v-166h-149v-913h-217v913h-111z" />
<glyph unicode="g" horiz-adv-x="835" d="M74 580q0 174 17.5 275t68.5 161q37 43 76.5 61.5t109.5 18.5q59 0 111 -29q37 -20 63 -57v69h209v-1099q0 -104 -23.5 -170t-68.5 -111q-41 -41 -104.5 -64.5t-129.5 -23.5q-68 0 -128 20.5t-105 63.5q-49 49 -69.5 109.5t-20.5 127.5h215q0 -66 31 -102q29 -33 77 -33 q47 0 78 35q31 37 31 133v185q-31 -41 -61 -60q-37 -24 -100 -24h-5q-68 0 -108.5 18t-77.5 61q-51 59 -68.5 160t-17.5 275zM291 578q0 -100 4 -174t29 -107q16 -20 33.5 -31.5t45.5 -11.5q49 0 78 31q31 33 31 98v389q0 63 -33 100q-29 31 -76 31q-29 0 -46 -12t-33 -33 q-25 -33 -29 -106.5t-4 -173.5z" />
<glyph unicode="h" horiz-adv-x="854" d="M106 0v1458h218v-448q27 37 63 57q47 29 109 29q66 0 112.5 -20.5t83.5 -63.5q33 -37 47.5 -88.5t14.5 -145.5v-778h-217v776q0 63 -31 94t-76 31t-75.5 -30.5t-30.5 -94.5v-776h-218z" />
<glyph unicode="i" horiz-adv-x="430" d="M94 1217v239h240v-239h-240zM106 0v1051h218v-1051h-218z" />
<glyph unicode="j" horiz-adv-x="430" d="M-41 -184q74 0 110.5 31.5t36.5 113.5v1090h218v-1102q0 -98 -30 -159.5t-81 -100.5q-53 -41 -115.5 -54.5t-138.5 -13.5v195zM94 1217v239h240v-239h-240z" />
<glyph unicode="k" horiz-adv-x="851" d="M106 0v1458h218v-840l272 461h227l-268 -428l283 -651h-240l-182 455l-92 -146v-309h-218z" />
<glyph unicode="l" horiz-adv-x="499" d="M100 328v1130h217v-1118q0 -145 148 -145v-195q-76 0 -139.5 12.5t-116.5 53.5q-51 39 -80 101t-29 161z" />
<glyph unicode="m" horiz-adv-x="1286" d="M106 0v1079h209v-80q14 18 33 38t39 30q47 29 109 29q66 0 121 -30t90 -81q20 23 44.5 44.5t51.5 37.5q25 14 57.5 21.5t57.5 7.5q76 0 121.5 -20.5t82.5 -63.5q33 -37 48.5 -88.5t15.5 -145.5v-778h-217v776q0 63 -32 94t-77 31t-75.5 -30.5t-30.5 -94.5v-776h-217v776 q0 63 -31 94t-76 31t-75.5 -30.5t-30.5 -94.5v-776h-218z" />
<glyph unicode="n" horiz-adv-x="854" d="M106 0v1079h209v-80q14 18 33 38t39 30q47 29 109 29q66 0 112.5 -20.5t83.5 -63.5q33 -37 47.5 -88.5t14.5 -145.5v-778h-217v776q0 63 -31 94t-76 31t-75.5 -30.5t-30.5 -94.5v-776h-218z" />
<glyph unicode="o" horiz-adv-x="811" d="M74 541q0 137 12 253.5t64 188.5q47 66 112.5 89.5t143.5 23.5t143 -23.5t113 -89.5q51 -72 63 -188.5t12 -253.5t-12 -254t-63 -189q-47 -66 -113 -90t-143 -24q-78 0 -143.5 24.5t-112.5 89.5q-51 72 -63.5 188.5t-12.5 254.5zM291 541q0 -121 4 -202t27 -118 q14 -23 36.5 -33t47.5 -10t47 10.5t36 32.5q23 37 27 118t4 202t-4 200.5t-27 116.5q-14 23 -36.5 34t-46.5 11q-25 0 -47.5 -11t-36.5 -34q-23 -37 -27 -116.5t-4 -200.5z" />
<glyph unicode="p" horiz-adv-x="835" d="M106 -379v1458h209v-80q10 16 33 37t39 31q47 29 109 29q59 0 106 -18.5t84 -65.5q53 -66 64.5 -180.5t11.5 -290.5t-11.5 -292t-64.5 -181q-37 -45 -82 -64.5t-108 -19.5q-61 0 -109 28q-37 20 -63 58v-449h-218zM324 307q0 -68 34 -102q14 -14 34 -20.5t40 -6.5 q53 0 82 43q23 37 27 118t4 202t-4 200.5t-27 116.5q-29 45 -82 45q-45 0 -74 -29q-35 -35 -34 -102v-465z" />
<glyph unicode="q" horiz-adv-x="835" d="M74 541q0 176 11 290.5t65 180.5q37 47 84 65.5t106 18.5q61 0 109 -29q16 -10 38.5 -30.5t32.5 -37.5v80h209v-1458h-217v449q-27 -37 -63 -58q-45 -28 -105 -28h-4q-63 0 -108.5 19.5t-81.5 64.5q-53 66 -64.5 181.5t-11.5 291.5zM291 541q0 -121 4 -202t27 -118 q14 -23 35.5 -33t45.5 -10q20 0 40 6t34 21q35 35 35 102v465q0 68 -35 102q-29 29 -74 29q-53 0 -81 -45q-23 -37 -27 -116.5t-4 -200.5z" />
<glyph unicode="r" horiz-adv-x="612" d="M106 0v1079h209v-114q16 25 41 47t54 39q74 45 168 45v-211h-74q-78 0 -129 -49.5t-51 -137.5v-698h-218z" />
<glyph unicode="s" horiz-adv-x="780" d="M55 315h215q0 -66 37 -102q16 -16 38 -24.5t44 -8.5q51 0 84 31q16 14 23.5 36.5t7.5 49.5q0 45 -23 80q-25 37 -84 61l-143 64q-111 49 -158 125q-35 55 -35 147q0 78 26 132.5t69 99.5q45 45 105.5 67.5t127.5 22.5q68 0 127 -20.5t100 -61.5q43 -41 68 -99.5 t25 -140.5h-213q0 35 -7.5 58.5t-23.5 39.5q-31 33 -76 33q-49 0 -80 -31q-30 -30 -30 -78q0 -42 16 -67q23 -37 80 -61l143 -62q55 -25 93 -52.5t65 -66.5q45 -63 45 -176q0 -80 -27.5 -139t-68.5 -100q-49 -49 -107.5 -68.5t-128.5 -19.5t-133 22.5t-104 65.5 q-47 49 -72 107.5t-25 135.5z" />
<glyph unicode="t" horiz-adv-x="561" d="M39 913v166h111v277h217v-277h149v-166h-149v-573q0 -145 153 -145v-195q-78 0 -142.5 11.5t-119.5 54.5q-51 41 -79.5 103t-28.5 159v585h-111z" />
<glyph unicode="u" horiz-adv-x="854" d="M100 301v778h217v-776q0 -63 31 -94t76 -31t75.5 31t30.5 94v776h218v-1079h-207v82q-14 -18 -34 -37.5t-40 -30.5q-23 -14 -51.5 -22t-57.5 -8q-66 0 -112.5 20.5t-83.5 63.5q-33 37 -47.5 88t-14.5 145z" />
<glyph unicode="v" horiz-adv-x="780" d="M8 1079h240l143 -735l141 735h240l-266 -1079h-230z" />
<glyph unicode="w" horiz-adv-x="1181" d="M8 1079h242l112 -735l134 735h186l135 -735l113 735h244l-242 -1079h-215l-129 700l-127 -700h-215z" />
<glyph unicode="x" horiz-adv-x="800" d="M18 0l254 549l-241 530h239l129 -327l129 327h242l-246 -530l258 -549h-241l-142 336l-141 -336h-240z" />
<glyph unicode="y" horiz-adv-x="782" d="M8 1079h240l143 -735l141 735h240l-303 -1216q-20 -82 -58 -130t-90.5 -73t-117 -32t-137.5 -7v193q35 0 65.5 4t55 15t43 32.5t28.5 60.5l18 76z" />
<glyph unicode="z" horiz-adv-x="665" d="M53 0v164l316 723h-291v192h534v-161l-315 -723h315v-195h-559z" />
<glyph unicode="{" horiz-adv-x="686" d="M59 633v192h80q41 0 67.5 31t26.5 78v389q0 74 21.5 126t56.5 87q37 37 87.5 55.5t105.5 18.5h125v-195h-80q-41 0 -69.5 -29.5t-28.5 -76.5v-369q0 -61 -15.5 -101t-40.5 -65q-23 -23 -40 -32t-33 -13q16 -4 34.5 -16.5t38.5 -28.5q25 -25 40.5 -64.5t15.5 -101.5v-368 q0 -47 28.5 -77t69.5 -30h80v-195h-125q-55 0 -105.5 18.5t-87.5 55.5q-35 35 -56.5 87t-21.5 126v389q0 47 -26.5 78t-67.5 31h-80z" />
<glyph unicode="|" horiz-adv-x="675" d="M229 -152v1762h217v-1762h-217z" />
<glyph unicode="}" horiz-adv-x="686" d="M59 43h80q41 0 69 29.5t28 77.5v368q0 61 15 101t40 65q16 16 36.5 28.5t37.5 16.5q-16 4 -37 13.5t-37 31.5q-25 25 -40 65t-15 101v369q0 47 -28 76.5t-69 29.5h-80v195h123q55 0 106.5 -18.5t88.5 -55.5q35 -35 55.5 -87t20.5 -126v-389q0 -47 27.5 -78t68.5 -31h80 v-192h-80q-41 0 -68.5 -31t-27.5 -78v-389q0 -74 -20.5 -126t-55.5 -87q-37 -37 -88 -55.5t-107 -18.5h-123v195z" />
<glyph unicode="~" horiz-adv-x="935" d="M47 608q72 72 131.5 103.5t126.5 31.5q55 0 97 -14t85 -37q33 -16 63 -28.5t71 -12.5t70.5 16.5t64.5 51.5l133 -131q-72 -72 -131.5 -103.5t-126.5 -31.5q-55 0 -96 14t-84 37q-33 16 -64 28.5t-72 12.5t-70.5 -16.5t-64.5 -51.5z" />
<glyph unicode="&#xa1;" horiz-adv-x="526" d="M115 827v252h252v-252h-252zM131 -379v1051h217v-1051h-217z" />
<glyph unicode="&#xa2;" horiz-adv-x="802" d="M84 743q0 131 12.5 243t63.5 179q35 45 78 68.5t96 34.5v190h166v-190q82 -12 143 -68q51 -47 70.5 -112.5t23.5 -131.5h-215q0 25 -5 49.5t-21 47.5q-29 35 -80 34q-25 0 -47.5 -9t-36.5 -31q-23 -35 -27 -112t-4 -192t4 -191.5t27 -111.5q14 -23 36.5 -33t47.5 -10 q49 0 80 37q16 20 21 45t5 51h215q-4 -72 -25.5 -135t-66.5 -106q-29 -29 -64.5 -44.5t-80.5 -25.5v-219h-166v219q-53 10 -96 33.5t-78 69.5q-51 68 -63.5 179t-12.5 242z" />
<glyph unicode="&#xa3;" horiz-adv-x="942" d="M66 664v165h129v250q0 90 29.5 163t81.5 125t124 80t156 28q86 0 160.5 -31t127.5 -86l-157 -154q-16 23 -46 43.5t-85 20.5q-66 0 -114 -48.5t-48 -138.5v-252h164v-165h-164v-457h450v-207h-679v664h-129z" />
<glyph unicode="&#xa4;" horiz-adv-x="1146" d="M139 289l117 114q-51 84 -51 183q0 100 51 184l-117 115l135 135l115 -115q41 23 87 36t97 13t96.5 -13t86.5 -36l116 115l134 -135l-115 -115q23 -41 37 -87t14 -97t-14.5 -96.5t-36.5 -86.5l115 -114l-134 -135l-116 114q-41 -23 -86 -37t-97 -14q-51 0 -97 14.5 t-87 36.5l-115 -114zM391 586q0 -76 53.5 -129.5t128.5 -53.5q76 0 129.5 53.5t53.5 129.5t-53.5 130t-129.5 54t-129 -54t-53 -130z" />
<glyph unicode="&#xa5;" horiz-adv-x="796" d="M18 1458h240l139 -577l142 577h239l-190 -624h121v-164h-172l-31 -99v-82h203v-165h-203v-324h-217v324h-203v165h203v82l-29 99h-174v164h123z" />
<glyph unicode="&#xa6;" horiz-adv-x="675" d="M229 -147v708h217v-708h-217zM229 897v709h217v-709h-217z" />
<glyph unicode="&#xa7;" horiz-adv-x="878" d="M92 553q0 55 3 98t14.5 79t31 64.5t52.5 57.5q12 10 26 18.5t31 14.5q-33 20 -60.5 45.5t-44.5 54.5q-37 57 -36 154q0 74 25.5 130t68.5 99q45 45 107.5 67.5t129.5 22.5q129 0 217 -72q51 -41 79 -102t28 -139h-217q0 27 -7.5 50.5t-23.5 39.5q-31 33 -76 33 q-47 0 -78 -31t-30 -80q0 -43 16 -72q10 -16 31.5 -33.5t48.5 -27.5l147 -63q31 -12 65 -32t56 -42q29 -29 46.5 -58.5t27.5 -67.5t13 -88t3 -120q0 -55 -3 -100t-13 -82t-30.5 -68t-53.5 -59q-10 -10 -23.5 -18.5t-29.5 -12.5q33 -20 57.5 -43t42.5 -55q20 -35 29.5 -75 t9.5 -81q0 -80 -24.5 -137.5t-71.5 -104.5q-45 -47 -108.5 -66.5t-133.5 -19.5t-132 23.5t-105 66.5q-47 47 -72 103.5t-25 128.5h222q0 -57 32 -92q16 -16 37 -24.5t43 -8.5q55 0 84 29q31 31 31 84q0 43 -23 75q-29 41 -84 64l-149 63q-29 12 -54.5 28.5t-48.5 37.5 q-35 35 -55 71.5t-29.5 77.5t-11.5 89.5t-2 105.5zM309 553q0 -63 6.5 -120.5t40.5 -88.5q35 -29 84 -29q45 0 82 31q35 31 41 86t6 121t-6 120t-41 87q-35 31 -82 31t-84 -31q-35 -29 -41 -83t-6 -124z" />
<glyph unicode="&#xa8;" d="M127 1223v204h205v-204h-205zM485 1223v204h205v-204h-205z" />
<glyph unicode="&#xa9;" horiz-adv-x="1728" d="M123 729q0 154 58.5 289t158.5 235.5t235.5 158.5t288.5 58q154 0 289 -58t235.5 -158.5t159 -235.5t58.5 -289t-58.5 -289t-159 -235.5t-235.5 -158.5t-289 -58t-289 58t-235 158.5t-158.5 235.5t-58.5 289zM268 729q0 -131 46 -242.5t126 -192.5t188.5 -127t235.5 -46 q125 0 234.5 46t189.5 127t126 192.5t46 242.5t-46 241.5t-126 192.5t-189.5 128t-234.5 46q-127 0 -235.5 -46t-188.5 -128t-126 -192.5t-46 -241.5zM651 727q0 49 1 98t6.5 94.5t17.5 83t35 64.5q27 31 62.5 52.5t94.5 21.5q90 0 146 -56q59 -61 63 -180h-131 q0 25 -4 45.5t-14 36.5q-20 31 -60 31q-23 0 -35 -9.5t-22 -23.5q-18 -29 -23.5 -96.5t-5.5 -161.5t5.5 -161.5t23.5 -96.5q10 -14 23.5 -23.5t33.5 -9.5q37 0 58 27q12 16 16 37.5t4 50.5h133q-2 -59 -19.5 -105.5t-45.5 -74.5q-57 -57 -146 -58q-59 0 -95 21.5t-62 52.5 q-23 27 -35 64.5t-17.5 83t-6.5 94.5t-1 98z" />
<glyph unicode="&#xaa;" horiz-adv-x="677" d="M51 852q0 121 84 192q33 29 79 44.5t122 15.5h76v110q0 43 -20.5 70t-61.5 27q-20 0 -35.5 -8.5t-26.5 -18.5q-16 -18 -19 -39.5t-3 -38.5h-180q0 53 16 101.5t57 89.5q33 33 83 52t106 19q53 0 103 -16t85 -51t55.5 -84t20.5 -119v-596h-168v70q-16 -20 -31.5 -33.5 t-25.5 -20.5q-18 -10 -43 -17t-54 -7q-53 0 -92 15.5t-74 54.5q-53 59 -53 188zM231 860q0 -51 21.5 -83t69.5 -32q37 0 63.5 31t26.5 84v117h-58q-25 0 -48 -5t-40 -22q-16 -16 -25.5 -40.5t-9.5 -49.5z" />
<glyph unicode="&#xab;" horiz-adv-x="847" d="M49 565l330 508v-323l-125 -185l125 -188v-322zM424 565l328 508v-323l-127 -185l127 -188v-322z" />
<glyph unicode="&#xac;" horiz-adv-x="935" d="M104 516v207h730v-432h-207v225h-523z" />
<glyph unicode="&#xad;" horiz-adv-x="604" d="M96 487v207h414v-207h-414z" />
<glyph unicode="&#xae;" horiz-adv-x="1728" d="M123 729q0 154 58.5 289t158.5 235.5t235.5 158.5t288.5 58q154 0 289 -58t235.5 -158.5t159 -235.5t58.5 -289t-58.5 -289t-159 -235.5t-235.5 -158.5t-289 -58t-289 58t-235 158.5t-158.5 235.5t-58.5 289zM268 729q0 -131 46 -242.5t126 -192.5t188.5 -127t235.5 -46 q125 0 234.5 46t189.5 127t126 192.5t46 242.5t-46 241.5t-126 192.5t-189.5 128t-234.5 46q-127 0 -235.5 -46t-188.5 -128t-126 -192.5t-46 -241.5zM672 324v806h213q102 0 151 -49q31 -33 42.5 -79t11.5 -111q0 -59 -9.5 -102.5t-42.5 -77.5q-14 -16 -39 -31l115 -356 h-137l-100 327h-72v-327h-133zM805 774h80q31 0 51 21q16 16 19 39.5t3 56.5q0 31 -4 55.5t-18 40.5q-20 20 -51 21h-80v-234z" />
<glyph unicode="&#xaf;" d="M158 1249v146h501v-146h-501z" />
<glyph unicode="&#xb0;" horiz-adv-x="839" d="M88 1155q0 68 26.5 128t71.5 105.5t105.5 72t128.5 26.5t128 -26.5t105 -72t72 -105.5t27 -128t-27 -128t-72 -105t-105.5 -72t-127.5 -27q-68 0 -128.5 27t-105.5 72t-71.5 105t-26.5 128zM279 1155q0 -59 40.5 -100t100.5 -41q59 0 100 41t41 100t-41 101t-100 42 t-100 -42t-41 -101z" />
<glyph unicode="&#xb1;" horiz-adv-x="935" d="M90 27v206h756v-206h-756zM90 647v207h275v274h206v-274h275v-207h-275v-274h-206v274h-275z" />
<glyph unicode="&#xb2;" horiz-adv-x="649" d="M84 1196v57q0 59 15.5 95t50.5 65q33 29 77.5 42t96.5 13q104 0 168 -49q33 -27 53 -67.5t20 -94.5q0 -47 -16.5 -97t-42.5 -91l-244 -364h303v-121h-473v114l273 416q20 31 31.5 65.5t11.5 82.5q0 41 -24 62.5t-60 21.5q-84 0 -84 -89v-61h-156z" />
<glyph unicode="&#xb3;" horiz-adv-x="649" d="M78 795v36h158v-40q0 -51 22 -72q23 -23 61 -23q43 0 62 23q16 16 20.5 52t4.5 69q0 35 -3.5 66.5t-19.5 49.5q-20 27 -66 27h-51v117h51q33 0 56 18q20 20 23 52t3 57t-3 53.5t-19 44.5q-20 20 -58 21q-37 0 -57 -21q-20 -20 -20 -63v-50h-158v41q0 59 15.5 95t47.5 65 q63 55 172 55t168 -53q35 -31 51.5 -77t16.5 -103q0 -41 -5 -75t-24 -62q-23 -33 -63 -56q45 -23 69 -61q20 -33 25.5 -70t5.5 -82q0 -66 -10 -112.5t-59 -87.5q-68 -55 -175 -56q-51 0 -97 14.5t-79 43.5q-31 27 -48 62.5t-17 101.5z" />
<glyph unicode="&#xb4;" d="M315 1202l148 285h182l-178 -285h-152z" />
<glyph unicode="&#xb6;" horiz-adv-x="1232" d="M74 1022q0 236 81 336t222 100h747v-1837h-217v1630h-207v-1630h-217v965h-106q-141 0 -222 100t-81 336z" />
<glyph unicode="&#xb7;" horiz-adv-x="557" d="M115 453v327h327v-327h-327z" />
<glyph unicode="&#xb8;" d="M233 -397l125 315h140l-109 -315h-156z" />
<glyph unicode="&#xb9;" horiz-adv-x="649" d="M123 1202v156l156 100h155v-874h-158v714z" />
<glyph unicode="&#xba;" horiz-adv-x="673" d="M66 1028q0 109 11 201t52 147q39 53 91 71.5t118 18.5t117 -18t90 -72q41 -55 52 -147t11 -201t-11 -201t-52 -147q-39 -53 -90.5 -71.5t-116.5 -18.5q-66 0 -118 18.5t-91 71.5q-41 55 -52 147.5t-11 200.5zM246 1028q0 -33 1 -69.5t3 -70.5t7 -61.5t15 -44.5 q23 -35 66 -34q41 0 63 34q8 14 14.5 43t8.5 63t3 70.5t1 69.5t-1 70t-3 70.5t-8 61t-15 44.5q-23 35 -63 35q-43 0 -66 -35q-10 -16 -15 -44t-7 -61.5t-3 -70.5t-1 -70z" />
<glyph unicode="&#xbb;" horiz-adv-x="847" d="M96 55v322l127 188l-127 185v323l328 -508zM469 55v322l125 188l-125 185v323l328 -508z" />
<glyph unicode="&#xbc;" horiz-adv-x="1607" d="M123 1202v156l153 100h156v-874h-156v714zM455 0l503 1458h168l-503 -1458h-168zM1012 129v123l223 622h154l-218 -622h140v143h155v-143h70v-123h-70v-129h-155v129h-299z" />
<glyph unicode="&#xbd;" horiz-adv-x="1607" d="M123 1202v156l153 100h156v-874h-156v714zM455 0l503 1458h168l-503 -1458h-168zM1042 612v58q0 59 15.5 95t50.5 64q33 29 78 42.5t96 13.5q106 0 170 -49q33 -27 52.5 -68t19.5 -94q0 -47 -16.5 -97.5t-43.5 -91.5l-241 -364h301v-121h-473v115l274 415q20 31 30.5 66 t10.5 82q0 41 -23.5 62.5t-60.5 21.5q-82 0 -82 -88v-62h-158z" />
<glyph unicode="&#xbe;" horiz-adv-x="1607" d="M78 795v36h158v-40q0 -51 22 -72q23 -23 61 -23q43 0 62 23q16 16 20.5 52t4.5 69q0 35 -3.5 66.5t-19.5 49.5q-20 27 -66 27h-51v117h51q33 0 56 18q20 20 23 52t3 57t-3 53.5t-19 44.5q-20 20 -58 21q-37 0 -57 -21q-20 -20 -20 -63v-50h-158v41q0 59 15.5 95t47.5 65 q63 55 172 55t168 -53q35 -31 51.5 -77t16.5 -103q0 -41 -5 -75t-24 -62q-23 -33 -63 -56q45 -23 69 -61q20 -33 25.5 -70t5.5 -82q0 -66 -10 -112.5t-59 -87.5q-68 -55 -175 -56q-51 0 -97 14.5t-79 43.5q-31 27 -48 62.5t-17 101.5zM455 0l503 1458h168l-503 -1458h-168z M1010 129v123l225 622h151l-215 -622h138v143h157v-143h70v-123h-70v-129h-157v129h-299z" />
<glyph unicode="&#xbf;" horiz-adv-x="872" d="M68 8q0 86 16 144.5t53 107.5l121 160q47 63 47 133v119h217v-144q0 -49 -17.5 -94t-45.5 -82l-121 -159q-35 -45 -44 -88.5t-9 -102.5q0 -53 8 -92t33 -68q35 -39 88 -39t88 39q29 31 34 74t5 86h217q0 -92 -21.5 -169t-74.5 -128q-43 -41 -102.5 -68.5t-143.5 -27.5 q-82 0 -144.5 24.5t-105.5 69.5q-53 53 -75.5 125t-22.5 180zM289 827v252h252v-252h-252z" />
<glyph unicode="&#xc0;" horiz-adv-x="958" d="M10 0l359 1458h223l354 -1458h-239l-60 289h-338l-57 -289h-242zM244 1841h182l147 -285h-151zM354 496h250l-125 610z" />
<glyph unicode="&#xc1;" horiz-adv-x="958" d="M10 0l359 1458h223l354 -1458h-239l-60 289h-338l-57 -289h-242zM354 496h250l-125 610zM385 1556l147 285h183l-178 -285h-152z" />
<glyph unicode="&#xc2;" horiz-adv-x="958" d="M10 0l359 1458h223l354 -1458h-239l-60 289h-338l-57 -289h-242zM193 1556l202 285h170l203 -285h-166l-123 168l-121 -168h-165zM354 496h250l-125 610z" />
<glyph unicode="&#xc3;" horiz-adv-x="958" d="M10 0l359 1458h223l354 -1458h-239l-60 289h-338l-57 -289h-242zM195 1686q53 53 93 74.5t87 21.5q35 0 63.5 -7.5t63.5 -27.5q23 -14 44 -22.5t46 -8.5q20 0 40.5 8.5t51.5 38.5l96 -96q-53 -53 -94 -73.5t-88 -20.5q-35 0 -63.5 7t-63.5 28q-23 14 -44 22t-46 8 q-23 0 -43.5 -8t-50.5 -39zM354 496h250l-125 610z" />
<glyph unicode="&#xc4;" horiz-adv-x="958" d="M10 0l359 1458h223l354 -1458h-239l-60 289h-338l-57 -289h-242zM199 1577v205h204v-205h-204zM354 496h250l-125 610zM557 1577v205h205v-205h-205z" />
<glyph unicode="&#xc5;" horiz-adv-x="958" d="M10 0l359 1458h223l354 -1458h-239l-60 289h-338l-57 -289h-242zM266 1763q0 90 61.5 151.5t151.5 61.5q45 0 84 -16t67.5 -45t46 -68t17.5 -84t-17.5 -84t-46 -68.5t-67.5 -46t-84 -16.5t-84 16.5t-67.5 46t-45 68.5t-16.5 84zM354 496h250l-125 610zM387 1763 q0 -39 26.5 -66.5t65.5 -27.5t66.5 27.5t27.5 66.5t-27.5 67t-66.5 28t-65.5 -28t-26.5 -67z" />
<glyph unicode="&#xc6;" horiz-adv-x="1382" d="M12 0l535 1458h760v-207h-383v-413h329v-207h-329v-424h383v-207h-613v303h-323l-107 -303h-252zM438 510h256v741z" />
<glyph unicode="&#xc7;" horiz-adv-x="915" d="M84 727q0 106 1 200.5t11 173.5t32 141.5t62 109.5q47 53 113 88t170 35q84 0 144.5 -24t109.5 -71q53 -51 83 -130t34 -177h-230q-2 41 -9 77t-25 64q-16 25 -41 39.5t-66 14.5t-66.5 -15.5t-41.5 -40.5q-33 -53 -42.5 -167.5t-9.5 -315.5t9.5 -315.5t42.5 -167.5 q16 -25 41.5 -40.5t66.5 -15.5t66.5 14.5t42.5 39.5q18 29 25 65.5t9 77.5h230q-4 -98 -35 -179t-86 -132q-49 -45 -109.5 -68.5t-142.5 -23.5q-104 0 -169.5 34.5t-113.5 87.5q-41 45 -62.5 107.5t-31.5 141.5t-11 171t-1 201zM283 -397l125 315h139l-109 -315h-155z" />
<glyph unicode="&#xc8;" horiz-adv-x="811" d="M123 0v1458h612v-207h-383v-413h330v-207h-330v-424h383v-207h-612zM199 1841h182l147 -285h-151z" />
<glyph unicode="&#xc9;" horiz-adv-x="811" d="M123 0v1458h612v-207h-383v-413h330v-207h-330v-424h383v-207h-612zM342 1556l147 285h183l-178 -285h-152z" />
<glyph unicode="&#xca;" horiz-adv-x="811" d="M123 0v1458h612v-207h-383v-413h330v-207h-330v-424h383v-207h-612zM150 1556l202 285h170l203 -285h-166l-123 168l-121 -168h-165z" />
<glyph unicode="&#xcb;" horiz-adv-x="811" d="M123 0v1458h612v-207h-383v-413h330v-207h-330v-424h383v-207h-612zM156 1577v205h204v-205h-204zM514 1577v205h205v-205h-205z" />
<glyph unicode="&#xcc;" horiz-adv-x="475" d="M23 1841h182l147 -285h-151zM123 0v1458h229v-1458h-229z" />
<glyph unicode="&#xcd;" horiz-adv-x="475" d="M123 0v1458h229v-1458h-229zM147 1556l148 285h182l-178 -285h-152z" />
<glyph unicode="&#xce;" horiz-adv-x="475" d="M-49 1556l203 285h170l202 -285h-166l-122 168l-121 -168h-166zM123 0v1458h229v-1458h-229z" />
<glyph unicode="&#xcf;" horiz-adv-x="475" d="M-45 1577v205h205v-205h-205zM123 0v1458h229v-1458h-229zM313 1577v205h205v-205h-205z" />
<glyph unicode="&#xd0;" horiz-adv-x="1001" d="M53 643v180h105v635h370q104 0 171 -34.5t112 -86.5q41 -45 62.5 -106.5t31.5 -138t11.5 -168t1.5 -195.5t-1.5 -195.5t-11.5 -168t-31.5 -138t-62.5 -106.5q-45 -51 -111.5 -86t-171.5 -35h-370v643h-105zM387 207h135q41 0 71 16.5t46 42.5q33 51 41 161.5t8 303.5 t-8 301.5t-41 159.5q-16 27 -46 43t-71 16h-135v-428h143v-180h-143v-436z" />
<glyph unicode="&#xd1;" horiz-adv-x="1021" d="M123 0v1458h205l342 -866v866h229v-1458h-203l-344 866v-866h-229zM233 1686q53 53 93.5 74.5t87.5 21.5q35 0 63.5 -7.5t63.5 -27.5q23 -14 44 -22.5t46 -8.5q20 0 40.5 8.5t51.5 38.5l96 -96q-53 -53 -94 -73.5t-88 -20.5q-35 0 -63.5 7t-63.5 28q-23 14 -44.5 22 t-45.5 8q-23 0 -43.5 -8t-50.5 -39z" />
<glyph unicode="&#xd2;" horiz-adv-x="946" d="M84 729q0 106 1 200.5t11 172.5t32 140.5t62 109.5q47 53 113 88t170 35t170 -35t113 -88q41 -47 62.5 -109.5t31.5 -140.5t11 -172.5t1 -200.5q0 -109 -1 -202t-11 -170.5t-31.5 -141t-62.5 -109.5q-47 -53 -112.5 -87.5t-170.5 -34.5q-104 0 -169.5 34.5t-113.5 87.5 q-41 45 -62.5 109t-31.5 141.5t-11 171t-1 201.5zM233 1841h183l147 -285h-151zM313 729q0 -201 9.5 -315.5t42.5 -167.5q16 -25 41.5 -40.5t66.5 -15.5t67.5 15.5t43.5 40.5q33 53 41 167.5t8 315.5t-8.5 315.5t-40.5 167.5q-16 25 -43 40.5t-68 15.5t-66.5 -15.5 t-41.5 -40.5q-33 -53 -42.5 -167.5t-9.5 -315.5z" />
<glyph unicode="&#xd3;" horiz-adv-x="946" d="M84 729q0 106 1 200.5t11 172.5t32 140.5t62 109.5q47 53 113 88t170 35t170 -35t113 -88q41 -47 62.5 -109.5t31.5 -140.5t11 -172.5t1 -200.5q0 -109 -1 -202t-11 -170.5t-31.5 -141t-62.5 -109.5q-47 -53 -112.5 -87.5t-170.5 -34.5q-104 0 -169.5 34.5t-113.5 87.5 q-41 45 -62.5 109t-31.5 141.5t-11 171t-1 201.5zM313 729q0 -201 9.5 -315.5t42.5 -167.5q16 -25 41.5 -40.5t66.5 -15.5t67.5 15.5t43.5 40.5q33 53 41 167.5t8 315.5t-8.5 315.5t-40.5 167.5q-16 25 -43 40.5t-68 15.5t-66.5 -15.5t-41.5 -40.5q-33 -53 -42.5 -167.5 t-9.5 -315.5zM379 1556l147 285h183l-179 -285h-151z" />
<glyph unicode="&#xd4;" horiz-adv-x="946" d="M84 729q0 106 1 200.5t11 172.5t32 140.5t62 109.5q47 53 113 88t170 35t170 -35t113 -88q41 -47 62.5 -109.5t31.5 -140.5t11 -172.5t1 -200.5q0 -109 -1 -202t-11 -170.5t-31.5 -141t-62.5 -109.5q-47 -53 -112.5 -87.5t-170.5 -34.5q-104 0 -169.5 34.5t-113.5 87.5 q-41 45 -62.5 109t-31.5 141.5t-11 171t-1 201.5zM182 1556l203 285h170l203 -285h-166l-123 168l-121 -168h-166zM313 729q0 -201 9.5 -315.5t42.5 -167.5q16 -25 41.5 -40.5t66.5 -15.5t67.5 15.5t43.5 40.5q33 53 41 167.5t8 315.5t-8.5 315.5t-40.5 167.5 q-16 25 -43 40.5t-68 15.5t-66.5 -15.5t-41.5 -40.5q-33 -53 -42.5 -167.5t-9.5 -315.5z" />
<glyph unicode="&#xd5;" horiz-adv-x="946" d="M84 729q0 106 1 200.5t11 172.5t32 140.5t62 109.5q47 53 113 88t170 35t170 -35t113 -88q41 -47 62.5 -109.5t31.5 -140.5t11 -172.5t1 -200.5q0 -109 -1 -202t-11 -170.5t-31.5 -141t-62.5 -109.5q-47 -53 -112.5 -87.5t-170.5 -34.5q-104 0 -169.5 34.5t-113.5 87.5 q-41 45 -62.5 109t-31.5 141.5t-11 171t-1 201.5zM184 1686q53 53 93 74.5t88 21.5q35 0 63.5 -7.5t63.5 -27.5q23 -14 44 -22.5t46 -8.5q20 0 40.5 8.5t51.5 38.5l96 -96q-53 -53 -94 -73.5t-88 -20.5q-35 0 -63.5 7t-63.5 28q-23 14 -44.5 22t-45.5 8q-23 0 -43.5 -8 t-51.5 -39zM313 729q0 -201 9.5 -315.5t42.5 -167.5q16 -25 41.5 -40.5t66.5 -15.5t67.5 15.5t43.5 40.5q33 53 41 167.5t8 315.5t-8.5 315.5t-40.5 167.5q-16 25 -43 40.5t-68 15.5t-66.5 -15.5t-41.5 -40.5q-33 -53 -42.5 -167.5t-9.5 -315.5z" />
<glyph unicode="&#xd6;" horiz-adv-x="946" d="M84 729q0 106 1 200.5t11 172.5t32 140.5t62 109.5q47 53 113 88t170 35t170 -35t113 -88q41 -47 62.5 -109.5t31.5 -140.5t11 -172.5t1 -200.5q0 -109 -1 -202t-11 -170.5t-31.5 -141t-62.5 -109.5q-47 -53 -112.5 -87.5t-170.5 -34.5q-104 0 -169.5 34.5t-113.5 87.5 q-41 45 -62.5 109t-31.5 141.5t-11 171t-1 201.5zM188 1577v205h205v-205h-205zM313 729q0 -201 9.5 -315.5t42.5 -167.5q16 -25 41.5 -40.5t66.5 -15.5t67.5 15.5t43.5 40.5q33 53 41 167.5t8 315.5t-8.5 315.5t-40.5 167.5q-16 25 -43 40.5t-68 15.5t-66.5 -15.5 t-41.5 -40.5q-33 -53 -42.5 -167.5t-9.5 -315.5zM547 1577v205h205v-205h-205z" />
<glyph unicode="&#xd7;" horiz-adv-x="935" d="M92 348l238 238l-238 237l139 140l238 -236l238 236l139 -140l-238 -237l238 -238l-139 -139l-238 237l-238 -237z" />
<glyph unicode="&#xd8;" horiz-adv-x="935" d="M84 729q0 106 1 200.5t11 172.5t32 140.5t62 109.5q47 53 113 88t170 35t178 -39l41 112h152l-76 -211q37 -47 56.5 -109.5t28.5 -140t10 -168t1 -190.5q0 -109 -1 -202t-11 -170.5t-31.5 -141t-62.5 -109.5q-47 -53 -113.5 -87.5t-171.5 -34.5q-104 0 -178 39l-39 -113 h-152l76 209q-37 45 -56.5 108.5t-28.5 141t-10 169t-1 191.5zM313 729q0 -98 2 -158.5t9 -101.5l251 756q-37 43 -102 43q-41 0 -66.5 -15.5t-41.5 -40.5q-33 -53 -42.5 -167.5t-9.5 -315.5zM373 233q33 -43 100 -43q41 0 67.5 15.5t43.5 40.5q33 53 41 167.5t8 315.5 q0 96 -1 156.5t-7 101.5z" />
<glyph unicode="&#xd9;" horiz-adv-x="964" d="M111 358v1100h229v-1112q0 -78 42 -117t101 -39t100.5 39t41.5 117v1112h229v-1100q0 -84 -26.5 -151.5t-73.5 -116.5q-104 -106 -271 -106q-168 0 -272 106q-47 49 -73.5 116.5t-26.5 151.5zM248 1841h182l148 -285h-152z" />
<glyph unicode="&#xda;" horiz-adv-x="964" d="M111 358v1100h229v-1112q0 -78 42 -117t101 -39t100.5 39t41.5 117v1112h229v-1100q0 -84 -26.5 -151.5t-73.5 -116.5q-104 -106 -271 -106q-168 0 -272 106q-47 49 -73.5 116.5t-26.5 151.5zM393 1556l148 285h182l-178 -285h-152z" />
<glyph unicode="&#xdb;" horiz-adv-x="964" d="M111 358v1100h229v-1112q0 -78 42 -117t101 -39t100.5 39t41.5 117v1112h229v-1100q0 -84 -26.5 -151.5t-73.5 -116.5q-104 -106 -271 -106q-168 0 -272 106q-47 49 -73.5 116.5t-26.5 151.5zM197 1556l202 285h170l203 -285h-166l-123 168l-121 -168h-165z" />
<glyph unicode="&#xdc;" horiz-adv-x="964" d="M111 358v1100h229v-1112q0 -78 42 -117t101 -39t100.5 39t41.5 117v1112h229v-1100q0 -84 -26.5 -151.5t-73.5 -116.5q-104 -106 -271 -106q-168 0 -272 106q-47 49 -73.5 116.5t-26.5 151.5zM203 1577v205h205v-205h-205zM561 1577v205h205v-205h-205z" />
<glyph unicode="&#xdd;" horiz-adv-x="796" d="M0 1458h254l143 -577l146 577h252l-283 -887v-571h-229v571zM305 1556l148 285h182l-178 -285h-152z" />
<glyph unicode="&#xde;" horiz-adv-x="940" d="M123 0v1458h229v-276h137q199 0 287 -107t88 -336q0 -221 -84 -333.5t-291 -112.5h-137v-293h-229zM352 500h142q45 0 73.5 19.5t43 51t19.5 74.5t5 92t-5 92t-19.5 75t-43 51.5t-73.5 19.5h-142v-475z" />
<glyph unicode="&#xdf;" horiz-adv-x="851" d="M106 0v1143q0 90 24 145t69 98q43 41 104.5 65t128.5 24q68 0 129.5 -18.5t108.5 -65.5q61 -61 78.5 -132t17.5 -157q0 -53 -5 -105.5t-30 -101.5q-27 -51 -78 -88q53 -37 80 -84q31 -53 39 -117t8 -166q0 -55 -1 -104t-10 -94t-28.5 -85t-56.5 -75q-51 -49 -116.5 -65.5 t-133.5 -16.5v195q23 0 50.5 6t43.5 28q29 35 32 94.5t3 135.5q0 70 -4 125t-27 90q-27 39 -81 39h-17v182h17q45 0 69 35q23 31 26 74t3 79q0 45 -4 88t-27 72q-29 37 -84 37q-47 0 -78.5 -33t-31.5 -98v-1149h-218z" />
<glyph unicode="&#xe0;" d="M51 315q0 74 25.5 136.5t75.5 105.5q41 35 97 54.5t150 19.5h97v149q0 125 -105 125q-45 0 -72 -31q-33 -35 -32 -100h-217q0 66 20.5 124t71.5 110q39 39 99.5 63.5t127.5 24.5q68 0 127 -18.5t102 -61.5t69 -104.5t26 -149.5v-762h-205v92q-14 -20 -30.5 -39.5 t-35.5 -32.5q-25 -16 -53.5 -26t-69.5 -10q-68 0 -114.5 21.5t-87.5 68.5q-66 74 -66 241zM168 1487h182l148 -285h-152zM268 324q0 -150 113 -150q49 0 82 39t33 104v160h-72q-37 0 -63.5 -5t-49.5 -28q-20 -18 -31.5 -53t-11.5 -67z" />
<glyph unicode="&#xe1;" d="M55 315q0 74 25.5 136.5t75.5 105.5q41 35 97 54.5t150 19.5h97v149q0 125 -105 125q-45 0 -71 -31q-33 -35 -33 -100h-217q0 66 20.5 124t71.5 110q39 39 100.5 63.5t126.5 24.5q68 0 128.5 -18.5t101.5 -61.5q43 -43 68.5 -104.5t25.5 -149.5v-762h-205v92 q-14 -20 -30.5 -39.5t-35.5 -32.5q-25 -16 -53 -26t-69 -10q-68 0 -115 21.5t-88 68.5q-66 78 -66 241zM272 324q0 -150 113 -150q49 0 82 39t33 104v160h-72q-35 0 -62.5 -5t-50.5 -28q-20 -18 -31.5 -53t-11.5 -67zM311 1202l148 285h182l-178 -285h-152z" />
<glyph unicode="&#xe2;" d="M55 315q0 74 25.5 136.5t75.5 105.5q41 35 97 54.5t150 19.5h97v149q0 125 -105 125q-45 0 -71 -31q-33 -35 -33 -100h-217q0 66 20.5 124t71.5 110q39 39 100.5 63.5t126.5 24.5q68 0 128.5 -18.5t101.5 -61.5q43 -43 68.5 -104.5t25.5 -149.5v-762h-205v92 q-14 -20 -30.5 -39.5t-35.5 -32.5q-25 -16 -53 -26t-69 -10q-68 0 -115 21.5t-88 68.5q-66 78 -66 241zM111 1202l202 285h170l203 -285h-166l-123 168l-121 -168h-165zM272 324q0 -150 113 -150q49 0 82 39t33 104v160h-72q-35 0 -62.5 -5t-50.5 -28q-20 -18 -31.5 -53 t-11.5 -67z" />
<glyph unicode="&#xe3;" d="M55 315q0 74 25.5 136.5t75.5 105.5q41 35 97 54.5t150 19.5h97v149q0 125 -105 125q-45 0 -71 -31q-33 -35 -33 -100h-217q0 66 20.5 124t71.5 110q39 39 100.5 63.5t126.5 24.5q68 0 128.5 -18.5t101.5 -61.5q43 -43 68.5 -104.5t25.5 -149.5v-762h-205v92 q-14 -20 -30.5 -39.5t-35.5 -32.5q-25 -16 -53 -26t-69 -10q-68 0 -115 21.5t-88 68.5q-66 78 -66 241zM113 1331q53 53 93 74.5t87 21.5q35 0 63.5 -7t63.5 -27q23 -14 44 -22.5t46 -8.5q20 0 40.5 8t51.5 39l96 -96q-53 -53 -94 -73.5t-88 -20.5q-35 0 -63.5 7t-63.5 27 q-23 14 -44 22.5t-46 8.5q-23 0 -43 -8t-51 -39zM272 324q0 -150 113 -150q49 0 82 39t33 104v160h-72q-35 0 -62.5 -5t-50.5 -28q-20 -18 -31.5 -53t-11.5 -67z" />
<glyph unicode="&#xe4;" d="M55 315q0 74 25.5 136.5t75.5 105.5q41 35 97 54.5t150 19.5h97v149q0 125 -105 125q-45 0 -71 -31q-33 -35 -33 -100h-217q0 66 20.5 124t71.5 110q39 39 100.5 63.5t126.5 24.5q68 0 128.5 -18.5t101.5 -61.5q43 -43 68.5 -104.5t25.5 -149.5v-762h-205v92 q-14 -20 -30.5 -39.5t-35.5 -32.5q-25 -16 -53 -26t-69 -10q-68 0 -115 21.5t-88 68.5q-66 78 -66 241zM117 1223v204h205v-204h-205zM272 324q0 -150 113 -150q49 0 82 39t33 104v160h-72q-35 0 -62.5 -5t-50.5 -28q-20 -18 -31.5 -53t-11.5 -67zM475 1223v204h205v-204 h-205z" />
<glyph unicode="&#xe5;" d="M55 315q0 74 25.5 136.5t75.5 105.5q41 35 97 54.5t150 19.5h97v149q0 125 -105 125q-45 0 -71 -31q-33 -35 -33 -100h-217q0 66 20.5 124t71.5 110q39 39 100.5 63.5t126.5 24.5q68 0 128.5 -18.5t101.5 -61.5q43 -43 68.5 -104.5t25.5 -149.5v-762h-205v92 q-14 -20 -30.5 -39.5t-35.5 -32.5q-25 -16 -53 -26t-69 -10q-68 0 -115 21.5t-88 68.5q-66 78 -66 241zM184 1415q0 90 61.5 151.5t151.5 61.5q45 0 84 -16.5t68 -45t46 -67.5t17 -84t-17 -84t-46 -68.5t-68 -46t-84 -16.5t-84 16.5t-67.5 46t-45 68.5t-16.5 84zM272 324 q0 -150 113 -150q49 0 82 39t33 104v160h-72q-35 0 -62.5 -5t-50.5 -28q-20 -18 -31.5 -53t-11.5 -67zM305 1415q0 -39 26.5 -66.5t65.5 -27.5t67 27.5t28 66.5t-28 66.5t-67 27.5t-65.5 -27.5t-26.5 -66.5z" />
<glyph unicode="&#xe6;" horiz-adv-x="1232" d="M55 315q0 74 25.5 136.5t75.5 105.5q41 35 97 54.5t150 19.5h97v151q0 59 -29 91t-76 32q-49 0 -76 -33q-29 -35 -28 -98h-217q0 66 20.5 124t71.5 110q39 39 100.5 63.5t126.5 24.5q51 0 98.5 -11.5t81.5 -37.5l20.5 -20.5t18.5 -22.5q8 10 15.5 18t17.5 16 q37 29 86 43.5t100 14.5q68 0 126.5 -17.5t105.5 -68.5q39 -41 59.5 -101.5t28.5 -131t9 -147.5t1 -153h-444q0 -92 6 -159.5t27 -96.5q12 -18 32.5 -30.5t48.5 -12.5q51 0 84 43q12 16 19.5 44t7.5 52h215q-4 -68 -23.5 -132t-66.5 -115q-41 -47 -102.5 -66.5t-133.5 -19.5 q-104 0 -182 53q-49 35 -84 90q-20 -31 -40.5 -56.5t-45.5 -41.5q-29 -23 -66.5 -34t-88.5 -11q-68 0 -115 21.5t-88 68.5q-66 78 -66 241zM272 324q0 -150 113 -150q49 0 82 39t33 104v160h-72q-35 0 -62.5 -5t-50.5 -28q-20 -18 -31.5 -53t-11.5 -67zM717 637h227 q0 84 -6 142.5t-25 80.5q-14 18 -33.5 30.5t-48.5 12.5t-48 -12t-33 -31q-18 -23 -25.5 -81t-7.5 -142z" />
<glyph unicode="&#xe7;" horiz-adv-x="786" d="M74 541q0 137 12 253.5t64 188.5q47 66 112.5 89.5t143.5 23.5q70 0 125 -15.5t102 -60.5q51 -49 71.5 -117.5t24.5 -138.5h-215q-2 25 -7 51.5t-22 48.5q-27 39 -79 39q-25 0 -47.5 -11t-36.5 -34q-23 -37 -27 -116.5t-4 -200.5t4 -201t27 -119q14 -23 36.5 -33 t47.5 -10q53 0 79 37q16 23 21.5 48.5t7.5 53.5h215q-4 -78 -26.5 -143t-67.5 -111q-80 -80 -229 -79q-78 0 -143.5 24.5t-112.5 89.5q-51 70 -63.5 186.5t-12.5 256.5zM233 -397l125 315h140l-109 -315h-156z" />
<glyph unicode="&#xe8;" d="M172 541q0 74 3 143.5t13.5 129.5t30 110.5t53.5 85.5q49 49 107.5 67.5t124.5 18.5q68 0 126 -17.5t105 -68.5q39 -41 59.5 -101.5t28.5 -131t9.5 -147.5t1.5 -153h-445q0 -92 6 -159.5t27 -96.5q12 -18 33.5 -30.5t50.5 -12.5t47 11.5t35 31.5q12 16 19 44t7 52h215 q-4 -68 -23.5 -132t-66.5 -115q-41 -47 -101 -66.5t-132 -19.5q-76 0 -130 19.5t-104 68.5q-35 35 -54 85t-29.5 110.5t-13.5 130t-3 143.5zM219 1487h182l148 -285h-152zM389 637h227q0 84 -6 142.5t-24 80.5q-14 18 -34 30.5t-48 12.5q-29 0 -48.5 -12t-33.5 -31 q-18 -23 -25.5 -81t-7.5 -142z" />
<glyph unicode="&#xe9;" horiz-adv-x="806" d="M74 541q0 74 3 143.5t13 129.5t29.5 110.5t54.5 85.5q49 49 107.5 67.5t124.5 18.5q68 0 126 -17.5t105 -68.5q39 -41 59.5 -101.5t28.5 -131t9 -147.5t1 -153h-444q0 -92 6 -159.5t27 -96.5q12 -18 33.5 -30.5t50.5 -12.5t47 11.5t34 31.5q12 16 19.5 44t7.5 52h215 q-4 -68 -23.5 -132t-66.5 -115q-41 -47 -101.5 -66.5t-131.5 -19.5q-76 0 -130.5 19.5t-103.5 68.5q-35 35 -54.5 85t-29.5 110.5t-13 130t-3 143.5zM291 637h227q0 84 -6 142.5t-25 80.5q-14 18 -33.5 30.5t-47.5 12.5q-29 0 -48.5 -12t-33.5 -31q-18 -23 -25.5 -81 t-7.5 -142zM315 1202l148 285h182l-178 -285h-152z" />
<glyph unicode="&#xea;" horiz-adv-x="806" d="M74 541q0 74 3 143.5t13 129.5t29.5 110.5t54.5 85.5q49 49 107.5 67.5t124.5 18.5q68 0 126 -17.5t105 -68.5q39 -41 59.5 -101.5t28.5 -131t9 -147.5t1 -153h-444q0 -92 6 -159.5t27 -96.5q12 -18 33.5 -30.5t50.5 -12.5t47 11.5t34 31.5q12 16 19.5 44t7.5 52h215 q-4 -68 -23.5 -132t-66.5 -115q-41 -47 -101.5 -66.5t-131.5 -19.5q-76 0 -130.5 19.5t-103.5 68.5q-35 35 -54.5 85t-29.5 110.5t-13 130t-3 143.5zM121 1202l203 285h170l202 -285h-166l-122 168l-121 -168h-166zM291 637h227q0 84 -6 142.5t-25 80.5q-14 18 -33.5 30.5 t-47.5 12.5q-29 0 -48.5 -12t-33.5 -31q-18 -23 -25.5 -81t-7.5 -142z" />
<glyph unicode="&#xeb;" horiz-adv-x="806" d="M74 541q0 74 3 143.5t13 129.5t29.5 110.5t54.5 85.5q49 49 107.5 67.5t124.5 18.5q68 0 126 -17.5t105 -68.5q39 -41 59.5 -101.5t28.5 -131t9 -147.5t1 -153h-444q0 -92 6 -159.5t27 -96.5q12 -18 33.5 -30.5t50.5 -12.5t47 11.5t34 31.5q12 16 19.5 44t7.5 52h215 q-4 -68 -23.5 -132t-66.5 -115q-41 -47 -101.5 -66.5t-131.5 -19.5q-76 0 -130.5 19.5t-103.5 68.5q-35 35 -54.5 85t-29.5 110.5t-13 130t-3 143.5zM127 1223v204h205v-204h-205zM291 637h227q0 84 -6 142.5t-25 80.5q-14 18 -33.5 30.5t-47.5 12.5q-29 0 -48.5 -12 t-33.5 -31q-18 -23 -25.5 -81t-7.5 -142zM485 1223v204h205v-204h-205z" />
<glyph unicode="&#xec;" horiz-adv-x="430" d="M-14 1487h182l147 -285h-151zM109 0v1079h217v-1079h-217z" />
<glyph unicode="&#xed;" horiz-adv-x="430" d="M109 0v1079h217v-1079h-217zM125 1202l147 285h185l-181 -285h-151z" />
<glyph unicode="&#xee;" horiz-adv-x="430" d="M-72 1202l203 285h170l203 -285h-166l-121 168l-123 -168h-166zM109 0v1079h217v-1079h-217z" />
<glyph unicode="&#xef;" horiz-adv-x="430" d="M-66 1223v204h205v-204h-205zM109 0v1079h217v-1079h-217zM293 1223v204h205v-204h-205z" />
<glyph unicode="&#xf0;" horiz-adv-x="819" d="M76 498q0 164 12 270t66 166q37 41 83 59.5t109 18.5q29 0 63.5 -9.5t59.5 -25.5l-61 188h-154v160h104l-47 133h219l45 -133h144v-160h-96l63 -207q14 -47 24.5 -93t17.5 -99t10 -118.5t3 -149.5q0 -129 -14 -235.5t-65 -172.5q-47 -59 -112 -82.5t-142 -23.5 q-78 0 -141.5 23.5t-110.5 82.5q-51 66 -65.5 172.5t-14.5 235.5zM293 502q0 -111 5 -179.5t28 -103.5q12 -20 34.5 -30.5t47.5 -10.5t48 10.5t36 30.5q23 35 27.5 103.5t4.5 179.5t-5 180.5t-27 103.5q-12 20 -36 30.5t-48 10.5q-25 0 -47.5 -10t-34.5 -31 q-23 -35 -28 -104.5t-5 -179.5z" />
<glyph unicode="&#xf1;" horiz-adv-x="854" d="M106 0v1079h209v-80q14 18 33 38t39 30q47 29 109 29q66 0 112.5 -20.5t83.5 -63.5q33 -37 47.5 -88.5t14.5 -145.5v-778h-217v776q0 63 -31 94t-76 31t-75.5 -30.5t-30.5 -94.5v-776h-218zM147 1331q53 53 93.5 74.5t87.5 21.5q35 0 63.5 -7t63.5 -27q23 -14 44 -22.5 t46 -8.5q20 0 40.5 8t51.5 39l96 -96q-53 -53 -94 -73.5t-88 -20.5q-35 0 -63.5 7t-63.5 27q-23 14 -44.5 22.5t-45.5 8.5q-23 0 -43.5 -8t-50.5 -39z" />
<glyph unicode="&#xf2;" d="M172 541q0 137 12.5 253.5t63.5 188.5q47 66 112.5 89.5t143.5 23.5t143.5 -23.5t112.5 -89.5q51 -72 63.5 -188.5t12.5 -253.5t-12.5 -254t-63.5 -189q-47 -66 -112.5 -90t-143.5 -24t-143.5 24.5t-112.5 89.5q-51 72 -63.5 188.5t-12.5 254.5zM221 1487h182l148 -285 h-152zM389 541q0 -121 4 -202t27 -118q14 -23 36.5 -33t47.5 -10t47 10.5t37 32.5q23 37 26.5 118t3.5 202t-4 200.5t-26 116.5q-14 23 -37 34t-47 11q-25 0 -47.5 -11t-36.5 -34q-23 -37 -27 -116.5t-4 -200.5z" />
<glyph unicode="&#xf3;" horiz-adv-x="811" d="M74 541q0 137 12 253.5t64 188.5q47 66 112.5 89.5t143.5 23.5t143 -23.5t113 -89.5q51 -72 63 -188.5t12 -253.5t-12 -254t-63 -189q-47 -66 -113 -90t-143 -24q-78 0 -143.5 24.5t-112.5 89.5q-51 72 -63.5 188.5t-12.5 254.5zM291 541q0 -121 4 -202t27 -118 q14 -23 36.5 -33t47.5 -10t47 10.5t36 32.5q23 37 27 118t4 202t-4 200.5t-27 116.5q-14 23 -36.5 34t-46.5 11q-25 0 -47.5 -11t-36.5 -34q-23 -37 -27 -116.5t-4 -200.5zM315 1202l148 285h182l-178 -285h-152z" />
<glyph unicode="&#xf4;" horiz-adv-x="811" d="M74 541q0 137 12 253.5t64 188.5q47 66 112.5 89.5t143.5 23.5t143 -23.5t113 -89.5q51 -72 63 -188.5t12 -253.5t-12 -254t-63 -189q-47 -66 -113 -90t-143 -24q-78 0 -143.5 24.5t-112.5 89.5q-51 72 -63.5 188.5t-12.5 254.5zM121 1202l203 285h170l202 -285h-166 l-122 168l-121 -168h-166zM291 541q0 -121 4 -202t27 -118q14 -23 36.5 -33t47.5 -10t47 10.5t36 32.5q23 37 27 118t4 202t-4 200.5t-27 116.5q-14 23 -36.5 34t-46.5 11q-25 0 -47.5 -11t-36.5 -34q-23 -37 -27 -116.5t-4 -200.5z" />
<glyph unicode="&#xf5;" horiz-adv-x="811" d="M74 541q0 137 12 253.5t64 188.5q47 66 112.5 89.5t143.5 23.5t143 -23.5t113 -89.5q51 -72 63 -188.5t12 -253.5t-12 -254t-63 -189q-47 -66 -113 -90t-143 -24q-78 0 -143.5 24.5t-112.5 89.5q-51 72 -63.5 188.5t-12.5 254.5zM121 1331q53 53 93 74.5t87 21.5 q35 0 63.5 -7t63.5 -27q23 -14 44.5 -22.5t45.5 -8.5q20 0 41 8t51 39l97 -96q-53 -53 -94.5 -73.5t-88.5 -20.5q-35 0 -63.5 7t-63.5 27q-23 14 -44 22.5t-46 8.5q-23 0 -43 -8t-51 -39zM291 541q0 -121 4 -202t27 -118q14 -23 36.5 -33t47.5 -10t47 10.5t36 32.5 q23 37 27 118t4 202t-4 200.5t-27 116.5q-14 23 -36.5 34t-46.5 11q-25 0 -47.5 -11t-36.5 -34q-23 -37 -27 -116.5t-4 -200.5z" />
<glyph unicode="&#xf6;" horiz-adv-x="811" d="M74 541q0 137 12 253.5t64 188.5q47 66 112.5 89.5t143.5 23.5t143 -23.5t113 -89.5q51 -72 63 -188.5t12 -253.5t-12 -254t-63 -189q-47 -66 -113 -90t-143 -24q-78 0 -143.5 24.5t-112.5 89.5q-51 72 -63.5 188.5t-12.5 254.5zM127 1223v204h205v-204h-205zM291 541 q0 -121 4 -202t27 -118q14 -23 36.5 -33t47.5 -10t47 10.5t36 32.5q23 37 27 118t4 202t-4 200.5t-27 116.5q-14 23 -36.5 34t-46.5 11q-25 0 -47.5 -11t-36.5 -34q-23 -37 -27 -116.5t-4 -200.5zM485 1223v204h205v-204h-205z" />
<glyph unicode="&#xf7;" horiz-adv-x="935" d="M90 469v207h756v-207h-756zM342 66v251h254v-251h-254zM342 825v252h254v-252h-254z" />
<glyph unicode="&#xf8;" horiz-adv-x="806" d="M59 -90l84 196q-47 72 -58 188t-11 247q0 137 12 253.5t64 188.5q47 66 112.5 89.5t143.5 23.5q45 0 83.5 -7.5t73.5 -23.5l43 104h146l-84 -194q47 -72 58 -187.5t11 -246.5q0 -137 -12 -254t-63 -189q-47 -66 -113 -90t-143 -24q-45 0 -84 7t-74 23l-43 -104h-146z M289 541q0 -35 1 -71t5 -52l186 461q-29 33 -75 32q-25 0 -47.5 -11t-36.5 -34q-23 -39 -28 -120.5t-5 -204.5zM330 201q29 -33 76 -33q25 0 47 12.5t36 34.5q23 39 28 121t5 205q0 35 -1 69.5t-5 51.5z" />
<glyph unicode="&#xf9;" horiz-adv-x="854" d="M100 301v778h217v-776q0 -63 31 -94t76 -31t75.5 31t30.5 94v776h218v-1079h-207v82q-14 -18 -34 -37.5t-40 -30.5q-23 -14 -51.5 -22t-57.5 -8q-66 0 -112.5 20.5t-83.5 63.5q-33 37 -47.5 88t-14.5 145zM180 1487h182l148 -285h-152z" />
<glyph unicode="&#xfa;" horiz-adv-x="854" d="M100 301v778h217v-776q0 -63 31 -94t76 -31t75.5 31t30.5 94v776h218v-1079h-207v82q-14 -18 -34 -37.5t-40 -30.5q-23 -14 -51.5 -22t-57.5 -8q-66 0 -112.5 20.5t-83.5 63.5q-33 37 -47.5 88t-14.5 145zM356 1202l148 285h182l-178 -285h-152z" />
<glyph unicode="&#xfb;" horiz-adv-x="854" d="M100 301v778h217v-776q0 -63 31 -94t76 -31t75.5 31t30.5 94v776h218v-1079h-207v82q-14 -18 -34 -37.5t-40 -30.5q-23 -14 -51.5 -22t-57.5 -8q-66 0 -112.5 20.5t-83.5 63.5q-33 37 -47.5 88t-14.5 145zM141 1202l203 285h170l203 -285h-166l-123 168l-121 -168h-166z " />
<glyph unicode="&#xfc;" horiz-adv-x="854" d="M100 301v778h217v-776q0 -63 31 -94t76 -31t75.5 31t30.5 94v776h218v-1079h-207v82q-14 -18 -34 -37.5t-40 -30.5q-23 -14 -51.5 -22t-57.5 -8q-66 0 -112.5 20.5t-83.5 63.5q-33 37 -47.5 88t-14.5 145zM145 1223v204h205v-204h-205zM504 1223v204h205v-204h-205z" />
<glyph unicode="&#xfd;" horiz-adv-x="782" d="M8 1079h240l143 -735l141 735h240l-303 -1216q-20 -82 -58 -130t-90.5 -73t-117 -32t-137.5 -7v193q35 0 65.5 4t55 15t43 32.5t28.5 60.5l18 76zM301 1202l148 285h182l-178 -285h-152z" />
<glyph unicode="&#xfe;" horiz-adv-x="841" d="M109 -379v1837h208v-459q10 16 33 37t39 31q47 29 111 29q59 0 105 -18.5t83 -65.5q53 -66 65.5 -180.5t12.5 -290.5t-12.5 -292t-65.5 -181q-37 -45 -81 -64.5t-107 -19.5t-111 28q-37 20 -63 58v-449h-217zM326 307q0 -68 34 -102q14 -14 34 -20.5t40 -6.5q53 0 82 43 q23 37 28 118t5 202t-5 200.5t-28 116.5q-29 45 -82 45q-45 0 -74 -29q-35 -35 -34 -102v-465z" />
<glyph unicode="&#xff;" horiz-adv-x="782" d="M8 1079h240l143 -735l141 735h240l-303 -1216q-20 -82 -58 -130t-90.5 -73t-117 -32t-137.5 -7v193q35 0 65.5 4t55 15t43 32.5t28.5 60.5l18 76zM113 1223v204h204v-204h-204zM471 1223v204h205v-204h-205z" />
<glyph unicode="&#x152;" horiz-adv-x="1314" d="M84 729q0 217 17.5 376t88.5 247q45 55 112 89t161 34q55 0 105 -20.5t79 -51.5v55h590v-207h-383v-413h330v-207h-330v-424h383v-207h-590v55q-33 -33 -81 -52t-103 -19q-94 0 -162 33.5t-111 88.5q-70 90 -88 248t-18 375zM313 729q0 -201 9.5 -315.5t42.5 -167.5 q16 -25 41.5 -40.5t66.5 -15.5t67.5 15.5t43.5 40.5q33 53 41 167.5t8 315.5t-8.5 315.5t-40.5 167.5q-16 25 -43 40.5t-68 15.5t-66.5 -15.5t-41.5 -40.5q-33 -53 -42.5 -167.5t-9.5 -315.5z" />
<glyph unicode="&#x153;" horiz-adv-x="1255" d="M74 541q0 137 12 253.5t64 188.5q47 66 112.5 89.5t143.5 23.5q55 0 106 -16.5t88 -47.5q18 -16 31 -37q16 23 39 39q78 61 182 62q68 0 126 -17.5t105 -68.5q39 -41 59.5 -101.5t30 -131t10.5 -147.5t1 -153h-447q0 -92 6.5 -159.5t26.5 -96.5q12 -18 33.5 -30.5 t50.5 -12.5t47.5 11.5t34.5 31.5q12 16 19.5 44t7.5 52h215q-4 -68 -23.5 -132t-67.5 -115q-41 -47 -101 -66.5t-132 -19.5q-57 0 -104.5 17t-81.5 46q-10 8 -18.5 18.5t-16.5 20.5q-12 -20 -37 -41q-35 -29 -85 -45t-105 -16q-78 0 -143.5 24.5t-112.5 89.5 q-51 72 -63.5 188.5t-12.5 254.5zM291 541q0 -121 4 -202t27 -118q14 -23 36.5 -33t47.5 -10t47 10.5t36 32.5q23 37 27 118t4 202t-4 200.5t-27 116.5q-14 23 -36.5 34t-46.5 11q-25 0 -47.5 -11t-36.5 -34q-23 -37 -27 -116.5t-4 -200.5zM737 637h230q0 84 -7.5 142.5 t-25.5 80.5q-14 18 -33.5 30.5t-48.5 12.5t-48.5 -12t-33.5 -31q-18 -23 -25.5 -81t-7.5 -142z" />
<glyph unicode="&#x178;" horiz-adv-x="796" d="M0 1458h254l143 -577l146 577h252l-283 -887v-571h-229v571zM117 1577v205h205v-205h-205zM475 1577v205h205v-205h-205z" />
<glyph unicode="&#x2c6;" d="M121 1202l203 285h170l202 -285h-166l-122 168l-121 -168h-166z" />
<glyph unicode="&#x2dc;" d="M123 1331q53 53 93 74.5t87 21.5q35 0 63.5 -7t63.5 -27q23 -14 44.5 -22.5t45.5 -8.5q20 0 41 8t51 39l97 -96q-53 -53 -94.5 -73.5t-88.5 -20.5q-35 0 -63.5 7t-63.5 27q-23 14 -44 22.5t-46 8.5q-23 0 -43 -8t-51 -39z" />
<glyph unicode="&#x2000;" horiz-adv-x="988" />
<glyph unicode="&#x2001;" horiz-adv-x="1976" />
<glyph unicode="&#x2002;" horiz-adv-x="988" />
<glyph unicode="&#x2003;" horiz-adv-x="1976" />
<glyph unicode="&#x2004;" horiz-adv-x="658" />
<glyph unicode="&#x2005;" horiz-adv-x="494" />
<glyph unicode="&#x2006;" horiz-adv-x="329" />
<glyph unicode="&#x2007;" horiz-adv-x="329" />
<glyph unicode="&#x2008;" horiz-adv-x="247" />
<glyph unicode="&#x2009;" horiz-adv-x="395" />
<glyph unicode="&#x200a;" horiz-adv-x="109" />
<glyph unicode="&#x2010;" horiz-adv-x="604" d="M96 487v207h414v-207h-414z" />
<glyph unicode="&#x2011;" horiz-adv-x="604" d="M96 487v207h414v-207h-414z" />
<glyph unicode="&#x2012;" horiz-adv-x="604" d="M96 487v207h414v-207h-414z" />
<glyph unicode="&#x2013;" horiz-adv-x="935" d="M90 487v207h756v-207h-756z" />
<glyph unicode="&#x2014;" horiz-adv-x="1456" d="M96 487v207h1266v-207h-1266z" />
<glyph unicode="&#x2018;" horiz-adv-x="468" d="M117 1217v241l235 174v-415h-235z" />
<glyph unicode="&#x2019;" horiz-adv-x="468" d="M117 1040v418h235v-241z" />
<glyph unicode="&#x201a;" horiz-adv-x="468" d="M117 -174v416h235v-242z" />
<glyph unicode="&#x201c;" horiz-adv-x="856" d="M117 1217v241l235 174v-415h-235zM502 1217v241l237 174v-415h-237z" />
<glyph unicode="&#x201d;" horiz-adv-x="856" d="M117 1040v418h235v-241zM502 1040v418h237v-241z" />
<glyph unicode="&#x201e;" horiz-adv-x="856" d="M117 -174v416h235v-242zM502 -174v416h237v-242z" />
<glyph unicode="&#x2022;" horiz-adv-x="913" d="M123 684q0 70 26.5 130t71.5 105.5t105.5 72t130.5 26.5t130 -26.5t105 -72t72 -105.5t27 -130t-27 -130t-72 -105.5t-105.5 -72t-129.5 -26.5q-70 0 -130.5 26.5t-105.5 72t-71.5 105.5t-26.5 130z" />
<glyph unicode="&#x2026;" horiz-adv-x="1339" d="M115 0v252h252v-252h-252zM545 0v252h252v-252h-252zM975 0v252h252v-252h-252z" />
<glyph unicode="&#x202f;" horiz-adv-x="395" />
<glyph unicode="&#x2039;" horiz-adv-x="473" d="M49 565l330 508v-323l-125 -185l125 -188v-322z" />
<glyph unicode="&#x203a;" horiz-adv-x="473" d="M96 55v322l123 188l-123 185v323l328 -508z" />
<glyph unicode="&#x205f;" horiz-adv-x="494" />
<glyph unicode="&#x20ac;" horiz-adv-x="1019" d="M66 481v166h114v164h-114v166h118q4 137 28 226t75 149q47 53 111.5 88t168.5 35q84 0 145.5 -24t110.5 -71q53 -51 83 -130t34 -177h-229q0 37 -6.5 72t-21.5 62.5t-43 44t-73 16.5q-41 0 -68.5 -15.5t-43.5 -40.5q-10 -16 -17.5 -35.5t-12.5 -47t-7 -64.5t-2 -88h217 v-166h-223v-164h223v-166h-217q2 -102 10 -152t31 -83q16 -23 42.5 -39.5t67.5 -16.5q45 0 73 17.5t43 45.5t21.5 62.5t6.5 71.5h229q-4 -98 -35 -179t-86 -132q-49 -45 -109.5 -68.5t-142.5 -23.5q-104 0 -168.5 34.5t-111.5 87.5q-53 59 -76 148.5t-27 226.5h-118z" />
<glyph unicode="&#x2122;" horiz-adv-x="1292" d="M51 1325v133h441v-133h-150v-762h-143v762h-148zM594 563v895h129l168 -461l170 461h129v-895h-143v539l-115 -350h-82l-113 344v-533h-143z" />
<glyph unicode="&#x25fc;" horiz-adv-x="1075" d="M0 0v1075h1075v-1075h-1075z" />
<glyph unicode="&#xfb01;" horiz-adv-x="948" d="M39 913v166h111v68q0 96 28.5 157.5t79.5 102.5q53 41 117.5 54.5t140.5 13.5v-195q-78 0 -113.5 -34t-35.5 -111v-56h149v-166h-149v-913h-217v913h-111zM614 1217v239h240v-239h-240zM625 0v1079h217v-1079h-217z" />
<glyph unicode="&#xfb02;" horiz-adv-x="1026" d="M39 913v166h111v68q0 96 28.5 157.5t79.5 102.5q53 41 117.5 54.5t140.5 13.5v-195q-150 0 -149 -145v-56h149v-166h-149v-913h-217v913h-111zM625 328v1130h217v-1118q0 -145 147 -145v-195q-76 0 -138.5 12.5t-115.5 53.5q-51 39 -80.5 101t-29.5 161z" />
</font>
</defs>
</svg>
